<svg width="370" height="62" viewBox="0 0 370 62" fill="none" xmlns="http://www.w3.org/2000/svg">
<path d="M68.2103 28.3834H70.0707C71.8095 28.3834 73.1106 28.0429 73.9739 27.3619C74.8373 26.6688 75.269 25.6657 75.269 24.3524C75.269 23.027 74.9042 22.0482 74.1746 21.4159C73.4572 20.7836 72.3263 20.4674 70.782 20.4674H68.2103V28.3834ZM80.9779 24.1518C80.9779 27.0215 80.0781 29.2163 78.2785 30.7363C76.491 32.2562 73.9435 33.0162 70.6361 33.0162H68.2103V42.5007H62.556V15.8346H71.0739C74.3083 15.8346 76.7646 16.5338 78.4426 17.9321C80.1328 19.3183 80.9779 21.3915 80.9779 24.1518ZM83.0959 16.8378C83.0959 15.026 84.1051 14.1201 86.1236 14.1201C88.1421 14.1201 89.1514 15.026 89.1514 16.8378C89.1514 17.7011 88.896 18.376 88.3853 18.8623C87.8868 19.3366 87.1329 19.5737 86.1236 19.5737C84.1051 19.5737 83.0959 18.6617 83.0959 16.8378ZM88.896 42.5007H83.333V22.109H88.896V42.5007ZM100.79 42.8655C94.443 42.8655 91.2694 39.3818 91.2694 32.4143C91.2694 28.9488 92.1327 26.3041 93.8594 24.4801C95.5861 22.644 98.0605 21.7259 101.283 21.7259C103.642 21.7259 105.758 22.188 107.63 23.1121L105.989 27.4167C105.113 27.064 104.298 26.7783 103.545 26.5594C102.791 26.3284 102.037 26.2129 101.283 26.2129C98.3889 26.2129 96.9419 28.2678 96.9419 32.3778C96.9419 36.3662 98.3889 38.3604 101.283 38.3604C102.353 38.3604 103.344 38.2205 104.256 37.9409C105.168 37.649 106.08 37.1991 106.992 36.5911V41.3516C106.092 41.9231 105.18 42.3183 104.256 42.5372C103.344 42.7561 102.189 42.8655 100.79 42.8655ZM118.084 38.4333C119.056 38.4333 120.224 38.2205 121.586 37.7949V41.9353C120.199 42.5555 118.497 42.8655 116.479 42.8655C114.253 42.8655 112.63 42.3062 111.609 41.1875C110.599 40.0566 110.095 38.3664 110.095 36.1169V26.2858H107.432V23.9329L110.496 22.0725L112.101 17.768H115.658V22.109H121.367V26.2858H115.658V36.1169C115.658 36.9073 115.877 37.4909 116.314 37.8679C116.764 38.2448 117.354 38.4333 118.084 38.4333ZM137.93 42.5007L137.183 39.8925H136.891C136.295 40.8409 135.45 41.5766 134.355 42.0995C133.261 42.6102 132.015 42.8655 130.616 42.8655C128.221 42.8655 126.415 42.2271 125.199 40.9504C123.983 39.6614 123.375 37.8132 123.375 35.4056V22.109H128.938V34.0194C128.938 35.4907 129.2 36.5972 129.723 37.339C130.245 38.0685 131.078 38.4333 132.221 38.4333C133.778 38.4333 134.903 37.9165 135.596 36.883C136.289 35.8372 136.635 34.1106 136.635 31.7029V22.109H142.198V42.5007H137.93ZM157.175 21.7259C157.929 21.7259 158.555 21.7807 159.054 21.8901L158.634 27.1066C158.185 26.985 157.637 26.9242 156.993 26.9242C155.218 26.9242 153.831 27.3802 152.834 28.2922C151.849 29.2041 151.357 30.4809 151.357 32.1225V42.5007H145.794V22.109H150.007L150.828 25.538H151.102C151.734 24.395 152.585 23.4769 153.655 22.7838C154.737 22.0786 155.911 21.7259 157.175 21.7259ZM176.311 42.5007H160.953V15.8346H176.311V20.4674H166.607V26.3223H175.636V30.9551H166.607V37.8314H176.311V42.5007ZM201.775 28.9123C201.775 33.3019 200.523 36.6641 198.018 38.9987C195.525 41.3334 191.92 42.5007 187.202 42.5007H179.651V15.8346H188.023C192.376 15.8346 195.756 16.9837 198.164 19.2818C200.571 21.58 201.775 24.7902 201.775 28.9123ZM195.902 29.0582C195.902 23.331 193.373 20.4674 188.314 20.4674H185.305V37.8314H187.731C193.178 37.8314 195.902 34.907 195.902 29.0582Z" fill="#121212"/>
<path d="M67.9252 55.69C67.9252 56.2829 67.7109 56.7482 67.2821 57.0857C66.8534 57.4232 66.262 57.592 65.5079 57.592C64.7538 57.592 64.1365 57.4749 63.6561 57.2408V56.2099C63.9601 56.3529 64.2824 56.4654 64.623 56.5475C64.9666 56.6296 65.2859 56.6706 65.5808 56.6706C66.0126 56.6706 66.3304 56.5885 66.5341 56.4243C66.7409 56.2601 66.8443 56.0397 66.8443 55.763C66.8443 55.5136 66.75 55.3023 66.5615 55.129C66.3729 54.9556 65.9837 54.7504 65.3938 54.5132C64.7857 54.2669 64.3569 53.9857 64.1076 53.6694C63.8583 53.3532 63.7336 52.9731 63.7336 52.5292C63.7336 51.9727 63.9312 51.5348 64.3265 51.2156C64.7218 50.8963 65.2524 50.7366 65.9184 50.7366C66.5569 50.7366 67.1924 50.8765 67.8249 51.1563L67.4782 52.0457C66.8853 51.7963 66.3562 51.6717 65.891 51.6717C65.5383 51.6717 65.2707 51.7492 65.0882 51.9043C64.9058 52.0563 64.8146 52.2585 64.8146 52.5109C64.8146 52.6842 64.8511 52.8332 64.924 52.9579C64.997 53.0795 65.1171 53.1951 65.2844 53.3045C65.4516 53.414 65.7526 53.5584 66.1875 53.7378C66.677 53.9416 67.0358 54.1316 67.2639 54.308C67.4919 54.4843 67.6592 54.6835 67.7656 54.9055C67.872 55.1274 67.9252 55.389 67.9252 55.69ZM82.7754 57.5007H81.6853V51.7675H79.724V50.8324H84.7367V51.7675H82.7754V57.5007ZM102.246 50.8324V55.1472C102.246 55.6398 102.14 56.0716 101.927 56.4426C101.717 56.8105 101.411 57.0948 101.01 57.2955C100.612 57.4931 100.134 57.592 99.5777 57.592C98.7506 57.592 98.1075 57.373 97.6484 56.9352C97.1892 56.4973 96.9596 55.8952 96.9596 55.129V50.8324H98.0543V55.0514C98.0543 55.6018 98.182 56.0077 98.4374 56.2692C98.6928 56.5307 99.0851 56.6615 99.6142 56.6615C100.642 56.6615 101.156 56.1218 101.156 55.0423V50.8324H102.246ZM120.631 54.1027C120.631 55.2035 120.325 56.0457 119.714 56.6296C119.103 57.2103 118.223 57.5007 117.073 57.5007H115.208V50.8324H117.269C118.331 50.8324 119.156 51.1183 119.746 51.6899C120.336 52.2616 120.631 53.0658 120.631 54.1027ZM119.482 54.1392C119.482 52.5428 118.735 51.7446 117.242 51.7446H116.298V56.584H117.073C118.679 56.584 119.482 55.769 119.482 54.1392ZM133.324 57.5007V50.8324H134.414V57.5007H133.324ZM153.355 54.1575C153.355 55.243 153.083 56.0868 152.539 56.6889C151.998 57.2909 151.23 57.592 150.235 57.592C149.229 57.592 148.455 57.294 147.914 56.698C147.376 56.099 147.107 55.2491 147.107 54.1483C147.107 53.0476 147.377 52.2023 147.918 51.6124C148.463 51.0225 149.238 50.7275 150.245 50.7275C151.236 50.7275 152.002 51.027 152.543 51.6261C153.085 52.2251 153.355 53.0689 153.355 54.1575ZM148.265 54.1575C148.265 54.9785 148.431 55.6018 148.762 56.0275C149.094 56.4502 149.585 56.6615 150.235 56.6615C150.883 56.6615 151.371 56.4517 151.7 56.0321C152.031 55.6124 152.197 54.9876 152.197 54.1575C152.197 53.3395 152.033 52.7192 151.704 52.2965C151.379 51.8739 150.892 51.6625 150.245 51.6625C149.591 51.6625 149.097 51.8739 148.762 52.2965C148.431 52.7192 148.265 53.3395 148.265 54.1575ZM169.888 55.69C169.888 56.2829 169.674 56.7482 169.245 57.0857C168.817 57.4232 168.225 57.592 167.471 57.592C166.717 57.592 166.1 57.4749 165.619 57.2408V56.2099C165.923 56.3529 166.246 56.4654 166.586 56.5475C166.93 56.6296 167.249 56.6706 167.544 56.6706C167.976 56.6706 168.294 56.5885 168.497 56.4243C168.704 56.2601 168.807 56.0397 168.807 55.763C168.807 55.5136 168.713 55.3023 168.525 55.129C168.336 54.9556 167.947 54.7504 167.357 54.5132C166.749 54.2669 166.32 53.9857 166.071 53.6694C165.821 53.3532 165.697 52.9731 165.697 52.5292C165.697 51.9727 165.894 51.5348 166.29 51.2156C166.685 50.8963 167.216 50.7366 167.882 50.7366C168.52 50.7366 169.156 50.8765 169.788 51.1563L169.441 52.0457C168.849 51.7963 168.319 51.6717 167.854 51.6717C167.501 51.6717 167.234 51.7492 167.051 51.9043C166.869 52.0563 166.778 52.2585 166.778 52.5109C166.778 52.6842 166.814 52.8332 166.887 52.9579C166.96 53.0795 167.08 53.1951 167.248 53.3045C167.415 53.414 167.716 53.5584 168.151 53.7378C168.64 53.9416 168.999 54.1316 169.227 54.308C169.455 54.4843 169.622 54.6835 169.729 54.9055C169.835 55.1274 169.888 55.389 169.888 55.69Z" fill="#121212"/>
<path d="M27.7276 58.0022C26.275 58.0022 24.8224 57.4119 23.7679 56.2419L17.6885 49.4585C14.8587 46.3029 13.6966 42.1169 14.5036 37.9631C15.2998 33.8093 17.936 30.3532 21.7343 28.4641L34.614 22.0778C35.9052 21.4445 36.1419 20.2638 36.185 19.7915C36.228 19.3193 36.2173 18.1172 35.0767 17.2478L27.2542 11.2908C25.8231 10.196 23.7895 10.3462 22.5305 11.6342L9.10206 25.4051C7.05766 27.4981 3.70054 27.541 1.60234 25.5017C-0.495862 23.4623 -0.538902 20.1135 1.5055 18.0205L14.9232 4.27115C19.9266 -0.848648 27.9859 -1.43898 33.6887 2.89729L41.5112 8.85429C45.2341 11.6879 47.1925 16.1637 46.7513 20.8219C46.3101 25.4802 43.5341 29.4945 39.3377 31.5768L26.4579 37.9631C25.3497 38.5105 25.0269 39.4658 24.9193 39.981C24.8224 40.4962 24.7794 41.5051 25.5971 42.4174L31.6765 49.2009C33.6349 51.3797 33.4412 54.7285 31.2569 56.6713C30.2455 57.5621 28.9865 58.0022 27.7276 58.0022Z" fill="#CA2129"/>
</svg>
