<svg width="473" height="297" viewBox="0 0 473 297" fill="none" xmlns="http://www.w3.org/2000/svg">
<path d="M402.989 24.4961L407.269 17.8371L405.133 16.574C404.831 16.3894 404.588 16.1279 404.43 15.8184C404.272 15.5089 404.206 15.1633 404.239 14.8198C404.276 14.4303 404.288 14.0389 404.275 13.6479C404.267 13.3038 404.357 12.9641 404.535 12.6659C404.713 12.3677 404.973 12.1225 405.285 11.9569L407.466 10.8271L403.679 3.91545L401.499 5.07325C401.184 5.23318 400.829 5.30602 400.474 5.28374C400.118 5.26145 399.776 5.1449 399.486 4.94694C399.151 4.7224 398.802 4.51891 398.453 4.32945C398.137 4.16727 397.875 3.92296 397.695 3.62411C397.515 3.32527 397.425 2.98382 397.436 2.63837L397.516 0.238576L389.398 0L389.325 2.40681C389.309 2.7516 389.195 3.08542 388.995 3.37145C388.795 3.65747 388.517 3.88458 388.191 4.02772C388.017 4.10491 387.835 4.19613 387.661 4.28735C387.486 4.37857 387.312 4.46979 387.137 4.57504C386.834 4.75207 386.486 4.84563 386.131 4.84563C385.776 4.84563 385.428 4.75207 385.124 4.57504L382.995 3.29796L378.692 9.9851L380.807 11.2552C381.11 11.4392 381.353 11.7006 381.511 12.0102C381.669 12.3199 381.735 12.6658 381.701 13.0094C381.665 13.3966 381.65 13.7855 381.657 14.1742C381.668 14.5179 381.58 14.8578 381.403 15.1562C381.226 15.4546 380.967 15.7 380.654 15.8653L378.474 17.002L382.312 23.9067L384.492 22.777C384.806 22.6145 385.16 22.5396 385.516 22.5606C385.872 22.5817 386.214 22.6979 386.505 22.8963C386.838 23.1193 387.182 23.3254 387.537 23.5138C387.852 23.6772 388.114 23.9218 388.294 24.2203C388.473 24.5189 388.564 24.8597 388.555 25.2048L388.475 27.6046L396.586 27.8502L396.666 25.4434C396.681 25.1004 396.795 24.7682 396.994 24.4835C397.192 24.1988 397.469 23.9725 397.792 23.8295C397.974 23.7453 398.156 23.6611 398.33 23.5629L398.853 23.2822C399.158 23.1017 399.509 23.0062 399.867 23.0062C400.225 23.0062 400.576 23.1017 400.881 23.2822L402.989 24.4961ZM396.12 19.5492C394.962 20.1466 393.646 20.399 392.339 20.2745C391.032 20.15 389.792 19.6542 388.777 18.8498C387.762 18.0454 387.016 16.9684 386.635 15.755C386.253 14.5417 386.253 13.2463 386.634 12.0327C387.014 10.8191 387.759 9.7417 388.774 8.93668C389.789 8.13165 391.028 7.63513 392.335 7.50987C393.642 7.3846 394.958 7.63621 396.117 8.2329C397.276 8.82959 398.225 9.74457 398.846 10.8622C399.258 11.6053 399.515 12.4195 399.601 13.2584C399.688 14.0973 399.602 14.9444 399.349 15.7512C399.096 16.5581 398.68 17.3088 398.126 17.9605C397.572 18.6122 396.891 19.152 396.12 19.5492Z" fill="#EBEBEB"/>
<path d="M56.2749 209.119L53.4187 204.354L51.9142 205.196C51.6926 205.324 51.4377 205.387 51.1799 205.378C50.9222 205.369 50.6725 205.289 50.4606 205.147C50.2266 204.998 49.9839 204.862 49.7338 204.74C49.5135 204.629 49.3291 204.462 49.2009 204.257C49.0727 204.051 49.0056 203.815 49.0071 203.575V201.898H43.3163V203.575C43.3178 203.815 43.2507 204.051 43.1225 204.257C42.9942 204.462 42.8099 204.629 42.5895 204.74C42.3394 204.862 42.0968 204.998 41.8627 205.147C41.6508 205.289 41.4012 205.369 41.1434 205.378C40.8857 205.387 40.6308 205.324 40.4092 205.196L38.9047 204.354L36.063 209.112L37.5747 209.954C37.7902 210.076 37.9662 210.253 38.083 210.467C38.1998 210.68 38.2528 210.92 38.2361 211.161C38.2361 211.294 38.2361 211.434 38.2361 211.568C38.2361 211.701 38.2361 211.834 38.2361 211.968C38.2537 212.208 38.2011 212.449 38.0842 212.663C37.9673 212.876 37.7908 213.053 37.5747 213.175L36.063 214.024L38.9047 218.781L40.4164 217.939C40.6381 217.812 40.893 217.749 41.1507 217.758C41.4084 217.766 41.6581 217.846 41.87 217.988C42.1026 218.136 42.3497 218.269 42.5968 218.395C42.8165 218.505 43.0007 218.671 43.1289 218.875C43.2571 219.08 43.3245 219.314 43.3236 219.553V221.237H49.0071V219.553C49.0061 219.314 49.0735 219.08 49.2017 218.875C49.33 218.671 49.5141 218.505 49.7338 218.395C49.981 218.269 50.2281 218.136 50.4606 217.988C50.6687 217.853 50.9116 217.777 51.162 217.769C51.4124 217.76 51.6604 217.819 51.8779 217.939L53.3896 218.781L56.2313 214.024L54.7196 213.182C54.506 213.058 54.3319 212.88 54.2165 212.667C54.1011 212.454 54.0488 212.215 54.0655 211.975C54.0655 211.841 54.0655 211.701 54.0655 211.568C54.0655 211.434 54.0655 211.294 54.0655 211.161C54.0487 210.92 54.1017 210.68 54.2185 210.467C54.3354 210.253 54.5114 210.076 54.7269 209.954L56.2749 209.119ZM50.8386 211.575C50.8386 212.465 50.5651 213.335 50.0529 214.074C49.5407 214.814 48.8127 215.391 47.961 215.731C47.1093 216.071 46.1722 216.16 45.2683 215.986C44.3644 215.812 43.5343 215.383 42.8831 214.753C42.2318 214.123 41.7887 213.321 41.6098 212.448C41.4309 211.575 41.5241 210.67 41.8779 209.849C42.2316 209.027 42.8298 208.325 43.5969 207.832C44.364 207.338 45.2654 207.076 46.1871 207.077C46.7976 207.078 47.4019 207.195 47.9655 207.422C48.5291 207.648 49.0408 207.98 49.4715 208.398C49.9022 208.815 50.2433 209.311 50.4754 209.856C50.7075 210.401 50.8259 210.985 50.824 211.575H50.8386Z" fill="#EBEBEB"/>
<path d="M33.1486 139.16C28.7687 139.16 24.4872 140.414 20.8454 142.763C17.2037 145.113 14.3652 148.452 12.6891 152.359C11.013 156.265 10.5745 160.564 11.4289 164.712C12.2834 168.859 14.3925 172.669 17.4896 175.659C20.5867 178.649 24.5326 180.685 28.8283 181.51C33.1241 182.335 37.5767 181.912 41.6232 180.294C45.6697 178.676 49.1283 175.935 51.5617 172.419C53.995 168.903 55.2938 164.769 55.2938 160.541C55.2948 157.733 54.7226 154.952 53.6101 152.358C52.4975 149.763 50.8663 147.406 48.8098 145.42C46.7532 143.435 44.3116 141.86 41.6243 140.786C38.9371 139.712 36.057 139.159 33.1486 139.16ZM33.1486 170.519C31.1028 170.519 29.103 169.933 27.4021 168.835C25.7011 167.738 24.3756 166.178 23.593 164.353C22.8104 162.528 22.6061 160.52 23.0057 158.583C23.4053 156.646 24.3911 154.867 25.8382 153.471C27.2853 152.074 29.1288 151.124 31.1354 150.74C33.1421 150.355 35.2218 150.554 37.1114 151.311C39.0011 152.067 40.6158 153.348 41.7514 154.991C42.8869 156.634 43.4922 158.565 43.4908 160.541C43.4908 161.852 43.2232 163.15 42.7034 164.361C42.1836 165.572 41.4217 166.672 40.4612 167.599C39.5007 168.525 38.3606 169.26 37.1059 169.761C35.8511 170.262 34.5064 170.52 33.1486 170.519Z" fill="#EBEBEB"/>
<path d="M37.4078 140.044H28.8899L29.3623 134.227H36.9354L37.4078 140.044Z" fill="#EBEBEB"/>
<path d="M21.1931 142.816L15.1753 148.626L11.2434 144.191L16.5998 139.02L21.1931 142.816Z" fill="#EBEBEB"/>
<path d="M11.7667 155.839V164.063L5.73438 163.607V156.295L11.7667 155.839Z" fill="#EBEBEB"/>
<path d="M14.63 171.487L20.655 177.304L16.0617 181.1L10.7053 175.929L14.63 171.487Z" fill="#EBEBEB"/>
<path d="M28.1265 180.595H36.6371L36.172 186.419H28.5989L28.1265 180.595Z" fill="#EBEBEB"/>
<path d="M44.334 177.823L50.359 172.013L54.2837 176.448L48.9273 181.619L44.334 177.823Z" fill="#EBEBEB"/>
<path d="M53.7676 164.8V156.576L59.7926 157.032V164.351L53.7676 164.8Z" fill="#EBEBEB"/>
<path d="M50.8969 149.152L44.8792 143.335L49.4724 139.546L54.8289 144.71L50.8969 149.152Z" fill="#EBEBEB"/>
<path d="M440.651 33.7233C436.269 33.7233 431.986 34.9776 428.344 37.3277C424.701 39.6778 421.861 43.0181 420.185 46.9262C418.508 50.8343 418.069 55.1346 418.924 59.2834C419.779 63.4322 421.889 67.2431 424.987 70.2342C428.085 73.2253 432.032 75.2623 436.329 76.0876C440.626 76.9128 445.08 76.4893 449.128 74.8705C453.176 73.2517 456.636 70.5104 459.07 66.9932C461.504 63.476 462.803 59.341 462.803 55.1109C462.804 52.302 462.232 49.5204 461.119 46.9251C460.006 44.3298 458.374 41.9717 456.317 39.9855C454.26 37.9993 451.817 36.4239 449.129 35.3494C446.441 34.2749 443.56 33.7223 440.651 33.7233ZM440.651 65.089C438.605 65.0876 436.606 64.5006 434.906 63.4023C433.206 62.304 431.882 60.7436 431.1 58.9185C430.319 57.0935 430.116 55.0856 430.516 53.149C430.916 51.2124 431.903 49.4338 433.35 48.0384C434.798 46.6429 436.641 45.6932 438.647 45.3093C440.654 44.9254 442.733 45.1245 444.623 45.8815C446.512 46.6386 448.126 47.9195 449.261 49.5623C450.396 51.2051 451.002 53.136 451 55.1109C451 56.4224 450.732 57.7211 450.212 58.9326C449.692 60.1441 448.929 61.2447 447.968 62.1714C447.007 63.0982 445.866 63.8329 444.61 64.3335C443.355 64.8341 442.009 65.0908 440.651 65.089Z" fill="#EBEBEB"/>
<path d="M444.91 34.6146H436.392L436.864 28.7905H444.445L444.91 34.6146Z" fill="#EBEBEB"/>
<path d="M428.702 37.3864L422.677 43.1964L418.753 38.7617L424.109 33.5902L428.702 37.3864Z" fill="#EBEBEB"/>
<path d="M419.269 50.4097V58.6335L413.244 58.1774V50.8658L419.269 50.4097Z" fill="#EBEBEB"/>
<path d="M422.14 66.0575L428.157 71.8745L423.564 75.6637L418.208 70.4992L422.14 66.0575Z" fill="#EBEBEB"/>
<path d="M435.629 75.1654H444.147L443.674 80.9895H436.101L435.629 75.1654Z" fill="#EBEBEB"/>
<path d="M451.836 72.3939L457.861 66.5839L461.793 71.0186L456.437 76.1901L451.836 72.3939Z" fill="#EBEBEB"/>
<path d="M461.27 59.3702V51.1464L467.302 51.6025V58.9141L461.27 59.3702Z" fill="#EBEBEB"/>
<path d="M458.406 43.7225L452.381 37.9054L456.974 34.1093L462.331 39.2807L458.406 43.7225Z" fill="#EBEBEB"/>
<path d="M382.333 180.623L381.614 184.861L380.851 189.415L373.83 230.949H362.361L369.375 189.415L370.145 184.861L370.857 180.623H382.333Z" fill="#EBEBEB"/>
<path d="M380.669 180.623C380.066 184.833 379.412 189.043 378.757 193.254L376.737 205.842L374.608 218.388L373.517 224.703L372.384 230.977L373.314 224.661L374.295 218.346L376.315 205.758L378.438 193.183C379.157 188.994 379.891 184.805 380.669 180.623Z" fill="#C7C7C7"/>
<path d="M381.614 184.861L380.851 189.415H369.375L370.145 184.861H381.614Z" fill="#C7C7C7"/>
<path d="M438.972 180.623L439.684 184.861L440.455 189.415L447.468 230.949H458.944L451.931 189.415L451.16 184.861L450.448 180.623H438.972Z" fill="#EBEBEB"/>
<path d="M440.673 180.623C441.276 184.833 441.923 189.043 442.584 193.254L444.605 205.842L446.727 218.388L447.817 224.668L448.958 230.942L448.028 224.626L447.046 218.311L445.026 205.758L442.926 193.176C442.199 188.994 441.472 184.805 440.673 180.623Z" fill="#C7C7C7"/>
<path d="M439.684 184.861H451.16L451.93 189.415H440.454L439.684 184.861Z" fill="#C7C7C7"/>
<path d="M381.912 168.94H372.812L373.946 160.751H380.785L381.912 168.94Z" fill="#C7C7C7"/>
<path d="M385.844 154.899C385.845 156.519 385.349 158.103 384.418 159.45C383.487 160.798 382.163 161.848 380.613 162.469C379.063 163.09 377.358 163.253 375.712 162.938C374.066 162.623 372.554 161.844 371.367 160.699C370.181 159.554 369.372 158.095 369.044 156.506C368.716 154.917 368.884 153.271 369.526 151.774C370.167 150.277 371.254 148.998 372.649 148.098C374.044 147.198 375.684 146.717 377.362 146.717C378.476 146.716 379.578 146.927 380.607 147.338C381.636 147.749 382.571 148.351 383.359 149.111C384.147 149.871 384.772 150.773 385.198 151.766C385.624 152.759 385.844 153.824 385.844 154.899Z" fill="#DBDBDB"/>
<path d="M383.809 154.899C383.81 156.13 383.433 157.334 382.726 158.359C382.018 159.383 381.012 160.182 379.834 160.654C378.656 161.126 377.36 161.251 376.109 161.011C374.858 160.772 373.709 160.18 372.806 159.309C371.904 158.439 371.289 157.33 371.04 156.123C370.791 154.915 370.918 153.663 371.406 152.526C371.893 151.388 372.72 150.416 373.78 149.731C374.84 149.047 376.087 148.682 377.362 148.682C379.071 148.682 380.709 149.337 381.918 150.502C383.127 151.668 383.807 153.249 383.809 154.899Z" fill="white"/>
<path d="M382.755 154.534C382.696 153.792 382.479 153.069 382.116 152.412C381.753 151.755 381.253 151.178 380.647 150.717C380.036 150.257 379.334 149.923 378.584 149.734C377.834 149.546 377.052 149.508 376.286 149.622C375.53 149.736 374.806 150.003 374.164 150.406C373.521 150.808 372.974 151.338 372.558 151.959C372.12 152.617 371.833 153.359 371.715 154.133C371.597 154.907 371.652 155.697 371.875 156.45C372.266 157.754 373.171 158.857 374.397 159.523C375.591 160.177 376.993 160.385 378.336 160.105C379.64 159.841 380.81 159.152 381.65 158.155C382.477 157.17 382.954 155.955 383.009 154.688C383.009 154.625 383.009 154.576 382.958 154.576C382.908 154.576 382.9 154.618 382.9 154.681C382.872 155.193 382.769 155.699 382.595 156.183C382.415 156.661 382.17 157.114 381.868 157.53C381.566 157.945 381.212 158.322 380.814 158.653C380.403 158.98 379.955 159.26 379.477 159.488C378.797 159.797 378.058 159.965 377.307 159.982C376.557 159.999 375.81 159.864 375.116 159.586C374.412 159.3 373.78 158.869 373.264 158.324C372.748 157.779 372.361 157.132 372.129 156.429C371.893 155.706 371.822 154.942 371.919 154.19C372.017 153.438 372.282 152.715 372.696 152.071C373.094 151.457 373.625 150.933 374.252 150.536C374.879 150.139 375.588 149.877 376.33 149.769C377.588 149.548 378.886 149.765 379.995 150.38C381.103 150.995 381.95 151.97 382.384 153.131C382.557 153.598 382.672 154.083 382.726 154.576L382.755 154.534Z" fill="#EBEBEB"/>
<path d="M381.999 154.534C381.941 153.898 381.748 153.281 381.433 152.719C381.118 152.158 380.688 151.665 380.168 151.271C379.647 150.884 379.052 150.601 378.417 150.439C377.781 150.276 377.119 150.237 376.468 150.324C375.816 150.417 375.192 150.643 374.636 150.985C374.08 151.327 373.605 151.778 373.241 152.31C372.857 152.878 372.603 153.518 372.495 154.188C372.388 154.858 372.429 155.543 372.616 156.197C372.777 156.762 373.052 157.291 373.427 157.752C373.801 158.214 374.267 158.599 374.797 158.884C375.839 159.456 377.064 159.633 378.234 159.383C379.363 159.142 380.373 158.539 381.098 157.67C381.815 156.815 382.23 155.76 382.283 154.66C382.283 154.611 382.283 154.569 382.224 154.569C382.166 154.569 382.166 154.604 382.166 154.66C382.106 155.538 381.804 156.385 381.294 157.113C380.783 157.842 380.081 158.426 379.259 158.807C378.668 159.084 378.023 159.237 377.367 159.255C376.71 159.273 376.057 159.156 375.451 158.912C374.839 158.666 374.292 158.292 373.847 157.818C373.402 157.344 373.072 156.781 372.878 156.169C372.677 155.544 372.619 154.885 372.708 154.237C372.797 153.589 373.031 152.967 373.394 152.415C373.739 151.892 374.197 151.448 374.736 151.113C375.276 150.777 375.884 150.558 376.519 150.471C377.59 150.291 378.693 150.476 379.638 150.996C380.582 151.516 381.309 152.338 381.694 153.32C381.844 153.719 381.947 154.133 381.999 154.555C382.001 154.548 382.001 154.541 381.999 154.534Z" fill="#EBEBEB"/>
<path d="M381.243 154.534C381.187 154.006 381.02 153.495 380.754 153.031C380.488 152.567 380.128 152.159 379.695 151.833C378.819 151.186 377.715 150.899 376.621 151.033C376.074 151.103 375.55 151.285 375.081 151.565C374.613 151.846 374.211 152.219 373.903 152.661C373.569 153.137 373.346 153.676 373.247 154.242C373.148 154.809 373.176 155.389 373.328 155.945C373.46 156.429 373.693 156.883 374.011 157.278C374.33 157.674 374.728 158.003 375.182 158.246C376.065 158.724 377.1 158.872 378.089 158.66C379.046 158.449 379.899 157.929 380.509 157.187C381.106 156.458 381.454 155.568 381.505 154.639C381.505 154.597 381.505 154.562 381.454 154.562C381.403 154.562 381.396 154.562 381.389 154.639C381.335 155.384 381.077 156.101 380.641 156.717C380.206 157.334 379.608 157.828 378.91 158.148C378.414 158.387 377.871 158.522 377.317 158.541C376.762 158.56 376.21 158.465 375.698 158.26C375.179 158.052 374.715 157.736 374.338 157.335C373.961 156.933 373.681 156.456 373.517 155.938C373.355 155.41 373.312 154.855 373.393 154.31C373.473 153.765 373.674 153.243 373.983 152.78C374.276 152.35 374.662 151.986 375.115 151.713C375.568 151.441 376.077 151.266 376.606 151.201C377.309 151.119 378.022 151.201 378.685 151.44C379.369 151.675 379.97 152.091 380.422 152.64C380.637 152.919 380.815 153.223 380.952 153.545C381.08 153.876 381.17 154.219 381.221 154.569C381.228 154.566 381.233 154.561 381.237 154.554C381.241 154.548 381.243 154.541 381.243 154.534Z" fill="#EBEBEB"/>
<path d="M380.487 154.534C380.374 153.686 379.916 152.917 379.215 152.394C378.517 151.889 377.648 151.656 376.781 151.741C376.338 151.792 375.911 151.932 375.528 152.152C375.145 152.372 374.814 152.667 374.557 153.018C374.278 153.405 374.087 153.845 373.998 154.308C373.909 154.772 373.924 155.248 374.041 155.706C374.143 156.109 374.331 156.487 374.593 156.817C374.854 157.147 375.183 157.421 375.56 157.622C376.301 158.019 377.171 158.132 377.994 157.937C378.778 157.755 379.474 157.322 379.971 156.709C380.457 156.104 380.738 155.369 380.778 154.604C380.779 154.597 380.778 154.589 380.776 154.582C380.774 154.575 380.771 154.568 380.766 154.562C380.761 154.557 380.756 154.552 380.749 154.548C380.742 154.544 380.735 154.542 380.727 154.541C380.71 154.543 380.695 154.55 380.683 154.561C380.671 154.573 380.663 154.588 380.662 154.604C380.601 155.199 380.385 155.769 380.033 156.26C379.68 156.751 379.204 157.147 378.648 157.411C378.247 157.612 377.805 157.727 377.354 157.747C376.902 157.768 376.451 157.694 376.032 157.53C375.607 157.362 375.227 157.103 374.921 156.772C374.615 156.442 374.391 156.048 374.266 155.622C374.14 155.194 374.112 154.744 374.183 154.304C374.255 153.864 374.424 153.445 374.68 153.075C374.921 152.734 375.235 152.447 375.602 152.235C375.968 152.023 376.378 151.891 376.802 151.847C377.356 151.799 377.914 151.869 378.438 152.05C378.965 152.238 379.432 152.558 379.79 152.976C379.961 153.193 380.105 153.429 380.218 153.678C380.33 153.94 380.41 154.213 380.458 154.492C380.458 154.492 380.495 154.569 380.487 154.534Z" fill="#EBEBEB"/>
<path d="M448.289 168.94H439.19L440.324 160.751H447.163L448.289 168.94Z" fill="#C7C7C7"/>
<path d="M452.221 154.899C452.223 156.519 451.727 158.103 450.796 159.45C449.865 160.798 448.54 161.848 446.991 162.469C445.441 163.09 443.735 163.253 442.09 162.938C440.444 162.623 438.932 161.844 437.745 160.699C436.558 159.554 435.75 158.095 435.422 156.506C435.094 154.917 435.262 153.271 435.903 151.774C436.545 150.277 437.632 148.998 439.027 148.098C440.422 147.198 442.062 146.717 443.74 146.717C445.988 146.717 448.144 147.579 449.735 149.113C451.325 150.647 452.22 152.728 452.221 154.899Z" fill="#DBDBDB"/>
<path d="M450.193 154.899C450.195 156.13 449.818 157.334 449.11 158.359C448.403 159.383 447.397 160.182 446.219 160.654C445.041 161.126 443.744 161.251 442.493 161.011C441.242 160.772 440.093 160.18 439.191 159.309C438.288 158.439 437.674 157.33 437.424 156.123C437.175 154.915 437.302 153.663 437.79 152.526C438.278 151.388 439.104 150.416 440.164 149.731C441.225 149.047 442.471 148.682 443.747 148.682C445.455 148.682 447.094 149.337 448.303 150.502C449.511 151.668 450.191 153.249 450.193 154.899Z" fill="white"/>
<path d="M449.125 154.534C449.07 153.792 448.854 153.069 448.492 152.411C448.131 151.754 447.631 151.177 447.025 150.717C446.414 150.257 445.712 149.923 444.962 149.734C444.212 149.546 443.43 149.508 442.664 149.622C441.907 149.736 441.184 150.003 440.541 150.406C439.899 150.808 439.352 151.338 438.936 151.959C438.498 152.617 438.211 153.359 438.093 154.133C437.975 154.907 438.029 155.697 438.253 156.45C438.643 157.754 439.549 158.857 440.775 159.523C441.969 160.177 443.371 160.385 444.714 160.105C446.017 159.841 447.187 159.152 448.028 158.155C448.855 157.17 449.332 155.955 449.387 154.688C449.387 154.625 449.387 154.576 449.336 154.576C449.285 154.576 449.278 154.618 449.278 154.681C449.249 155.193 449.147 155.699 448.973 156.183C448.79 156.66 448.545 157.112 448.246 157.53C447.944 157.945 447.59 158.322 447.192 158.653C446.781 158.98 446.332 159.26 445.855 159.488C445.17 159.802 444.425 159.973 443.667 159.99C442.909 160.006 442.157 159.869 441.458 159.586C440.753 159.3 440.121 158.869 439.605 158.324C439.09 157.779 438.703 157.132 438.471 156.429C438.234 155.706 438.163 154.942 438.261 154.19C438.359 153.438 438.624 152.715 439.038 152.071C439.435 151.456 439.965 150.932 440.592 150.535C441.22 150.137 441.929 149.876 442.671 149.769C443.931 149.545 445.233 149.759 446.345 150.375C447.456 150.99 448.305 151.967 448.74 153.131C448.913 153.598 449.027 154.083 449.082 154.576C449.093 154.576 449.104 154.572 449.113 154.564C449.121 154.556 449.125 154.545 449.125 154.534Z" fill="#EBEBEB"/>
<path d="M448.376 154.534C448.318 153.898 448.125 153.281 447.81 152.719C447.496 152.158 447.065 151.665 446.545 151.271C446.024 150.884 445.429 150.601 444.794 150.439C444.159 150.276 443.496 150.237 442.846 150.324C442.193 150.417 441.569 150.643 441.013 150.985C440.457 151.327 439.982 151.778 439.619 152.31C439.235 152.878 438.98 153.518 438.873 154.188C438.765 154.858 438.806 155.543 438.994 156.197C439.154 156.762 439.429 157.291 439.804 157.752C440.178 158.214 440.644 158.599 441.174 158.884C442.216 159.456 443.441 159.633 444.612 159.383C445.74 159.142 446.75 158.539 447.475 157.67C448.193 156.816 448.606 155.76 448.653 154.66C448.653 154.611 448.653 154.569 448.602 154.569C448.551 154.569 448.544 154.604 448.544 154.66C448.483 155.538 448.182 156.385 447.671 157.113C447.16 157.842 446.458 158.426 445.636 158.807C445.046 159.084 444.4 159.237 443.744 159.255C443.087 159.273 442.434 159.156 441.828 158.912C441.217 158.666 440.669 158.292 440.224 157.818C439.78 157.344 439.449 156.781 439.255 156.169C439.055 155.545 438.996 154.886 439.084 154.238C439.172 153.59 439.404 152.968 439.764 152.415C440.11 151.894 440.569 151.45 441.108 151.115C441.647 150.78 442.254 150.56 442.889 150.471C443.961 150.289 445.066 150.474 446.012 150.994C446.958 151.514 447.686 152.337 448.071 153.32C448.221 153.719 448.324 154.133 448.376 154.555C448.378 154.548 448.378 154.541 448.376 154.534Z" fill="#EBEBEB"/>
<path d="M447.62 154.534C447.564 154.006 447.398 153.495 447.132 153.031C446.866 152.567 446.505 152.159 446.072 151.833C445.197 151.184 444.093 150.894 442.998 151.026C442.452 151.096 441.927 151.278 441.458 151.558C440.99 151.839 440.588 152.212 440.28 152.654C439.947 153.13 439.723 153.669 439.624 154.235C439.525 154.802 439.553 155.382 439.706 155.937C439.838 156.422 440.07 156.876 440.388 157.271C440.707 157.667 441.105 157.996 441.559 158.239C442.442 158.717 443.477 158.865 444.466 158.653C445.423 158.442 446.277 157.922 446.886 157.179C447.484 156.451 447.832 155.56 447.882 154.632C447.882 154.59 447.882 154.555 447.831 154.555C447.78 154.555 447.773 154.555 447.766 154.632C447.707 155.375 447.448 156.091 447.013 156.707C446.578 157.322 445.983 157.817 445.287 158.141C444.791 158.38 444.248 158.514 443.694 158.534C443.14 158.553 442.588 158.457 442.075 158.253C441.556 158.046 441.091 157.73 440.714 157.329C440.337 156.927 440.057 156.449 439.895 155.93C439.732 155.403 439.69 154.848 439.77 154.303C439.85 153.758 440.051 153.236 440.36 152.773C440.653 152.343 441.04 151.979 441.493 151.706C441.945 151.434 442.454 151.259 442.983 151.194C443.686 151.112 444.399 151.194 445.062 151.433C445.729 151.677 446.314 152.091 446.756 152.632C446.97 152.912 447.149 153.216 447.286 153.538C447.414 153.869 447.504 154.212 447.555 154.562C447.561 154.566 447.568 154.568 447.575 154.568C447.582 154.569 447.589 154.567 447.595 154.565C447.602 154.562 447.607 154.558 447.612 154.552C447.616 154.547 447.619 154.541 447.62 154.534Z" fill="#EBEBEB"/>
<path d="M446.864 154.534C446.751 153.686 446.293 152.917 445.593 152.394C444.895 151.889 444.026 151.656 443.158 151.741C442.715 151.792 442.289 151.932 441.905 152.152C441.522 152.372 441.191 152.667 440.934 153.018C440.655 153.405 440.464 153.845 440.375 154.308C440.286 154.772 440.301 155.248 440.418 155.706C440.521 156.109 440.709 156.487 440.97 156.817C441.231 157.147 441.561 157.421 441.937 157.622C442.678 158.02 443.548 158.133 444.372 157.937C445.155 157.755 445.852 157.322 446.348 156.709C446.831 156.102 447.112 155.368 447.155 154.604C447.156 154.597 447.156 154.589 447.154 154.582C447.152 154.575 447.148 154.568 447.143 154.562C447.139 154.557 447.133 154.552 447.126 154.548C447.119 154.544 447.112 154.542 447.104 154.541C447.088 154.543 447.072 154.55 447.06 154.561C447.048 154.573 447.041 154.588 447.039 154.604C446.979 155.199 446.762 155.769 446.41 156.26C446.057 156.751 445.581 157.147 445.026 157.411C444.624 157.612 444.183 157.727 443.731 157.747C443.279 157.768 442.828 157.694 442.409 157.53C441.984 157.362 441.605 157.103 441.299 156.772C440.993 156.442 440.769 156.048 440.643 155.622C440.517 155.194 440.489 154.744 440.56 154.304C440.632 153.864 440.801 153.445 441.057 153.075C441.298 152.734 441.612 152.447 441.979 152.235C442.345 152.023 442.755 151.891 443.18 151.847C443.734 151.799 444.292 151.869 444.815 152.05C445.341 152.236 445.806 152.556 446.16 152.976C446.335 153.191 446.482 153.427 446.596 153.678C446.707 153.94 446.787 154.213 446.835 154.492C446.835 154.492 446.864 154.569 446.864 154.534Z" fill="#EBEBEB"/>
<path d="M467.818 164.765H353.494V185.879H467.818V164.765Z" fill="#DBDBDB"/>
<path d="M376.985 164.765L368.692 185.879H353.924L362.224 164.765H376.985Z" fill="#EBEBEB"/>
<path d="M407.248 164.765L398.955 185.879H384.187L392.479 164.765H407.248Z" fill="#EBEBEB"/>
<path d="M437.511 164.765L429.211 185.879H414.45L422.75 164.765H437.511Z" fill="#EBEBEB"/>
<path d="M467.774 164.765L459.474 185.879H444.706L453.006 164.765H467.774Z" fill="#EBEBEB"/>
<path d="M465.5 205.393H355.806V218.753H465.5V205.393Z" fill="#DBDBDB"/>
<path d="M378.351 205.393L370.392 218.753H356.227L364.186 205.393H378.351Z" fill="#EBEBEB"/>
<path d="M407.386 205.393L399.428 218.753H385.255L393.221 205.393H407.386Z" fill="#EBEBEB"/>
<path d="M436.421 205.393L428.462 218.753H414.297L422.256 205.393H436.421Z" fill="#EBEBEB"/>
<path d="M465.463 205.393L457.498 218.753H443.325L451.291 205.393H465.463Z" fill="#EBEBEB"/>
<path d="M322.003 296.718C395.121 296.718 454.395 292.854 454.395 288.087C454.395 283.321 395.121 279.457 322.003 279.457C248.885 279.457 189.612 283.321 189.612 288.087C189.612 292.854 248.885 296.718 322.003 296.718Z" fill="#EBEBEB"/>
<path d="M5.22534 230.934L63.0485 230.766L120.872 230.703L236.518 230.591L352.164 230.703L409.987 230.766L467.811 230.934L409.987 231.11L352.164 231.173L236.518 231.285L120.872 231.173L63.0485 231.11L5.22534 230.934Z" fill="#263238"/>
<path d="M376.083 52.7183H96.9534V232.99H376.083V52.7183Z" fill="#DBDBDB"/>
<path d="M374.055 54.9215H98.981V230.794H374.055V54.9215Z" fill="#263238"/>
<path d="M412.437 246.505H60.5994V258.876H412.437V246.505Z" fill="#C7C7C7"/>
<path d="M60.5994 246.505L96.9532 232.99H376.083L412.437 246.505H60.5994Z" fill="#DBDBDB"/>
<path d="M100.202 241.713L123.663 232.99H349.373L372.834 241.713H100.202Z" fill="#263238"/>
<path d="M358.72 68.2188H114.323V217.49H358.72V68.2188Z" fill="white"/>
<path d="M358.72 68.2188H114.323V73.9656H358.72V68.2188Z" fill="#455A64"/>
<path d="M119.048 71.0887C119.048 71.3663 118.962 71.6376 118.803 71.8684C118.643 72.0992 118.416 72.279 118.15 72.3853C117.885 72.4915 117.592 72.5193 117.31 72.4651C117.028 72.411 116.769 72.2773 116.566 72.081C116.363 71.8848 116.224 71.6347 116.168 71.3625C116.112 71.0902 116.141 70.8081 116.251 70.5516C116.361 70.2952 116.547 70.076 116.786 69.9218C117.025 69.7676 117.306 69.6853 117.594 69.6853C117.979 69.6853 118.349 69.8332 118.622 70.0963C118.894 70.3595 119.048 70.7165 119.048 71.0887Z" fill="#CC0909"/>
<path d="M125.073 71.0887C125.073 71.3663 124.987 71.6376 124.828 71.8684C124.668 72.0992 124.441 72.279 124.175 72.3853C123.91 72.4915 123.617 72.5193 123.336 72.4651C123.054 72.411 122.795 72.2773 122.591 72.081C122.388 71.8848 122.25 71.6347 122.193 71.3625C122.137 71.0902 122.166 70.8081 122.276 70.5516C122.386 70.2952 122.573 70.076 122.812 69.9218C123.051 69.7676 123.332 69.6853 123.619 69.6853C124.005 69.6853 124.374 69.8332 124.647 70.0963C124.92 70.3595 125.073 70.7165 125.073 71.0887Z" fill="#EBEBEB"/>
<path d="M131.134 71.0887C131.134 71.3663 131.049 71.6376 130.889 71.8684C130.729 72.0992 130.502 72.279 130.237 72.3853C129.971 72.4915 129.679 72.5193 129.397 72.4651C129.115 72.411 128.856 72.2773 128.653 72.081C128.449 71.8848 128.311 71.6347 128.255 71.3625C128.199 71.0902 128.227 70.8081 128.337 70.5516C128.447 70.2952 128.634 70.076 128.873 69.9218C129.112 69.7676 129.393 69.6853 129.68 69.6853C130.066 69.6853 130.436 69.8332 130.708 70.0963C130.981 70.3595 131.134 70.7165 131.134 71.0887Z" fill="white"/>
<path d="M231.191 171.333H275.721V138.346H231.191V171.333Z" fill="#EBEBEB"/>
<path d="M235.617 145.566C235.447 146.389 235.555 147.242 235.926 148.001C236.297 148.76 236.911 149.383 237.677 149.779C238.443 150.174 239.32 150.322 240.18 150.199C241.039 150.076 241.835 149.689 242.449 149.096C243.064 148.503 243.464 147.735 243.591 146.905C243.719 146.075 243.566 145.228 243.156 144.488C242.746 143.749 242.101 143.156 241.315 142.798C240.529 142.44 239.645 142.335 238.793 142.5C238.009 142.651 237.289 143.023 236.724 143.569C236.159 144.115 235.774 144.81 235.617 145.566Z" fill="white"/>
<path d="M245.879 164.231H275.714L260.793 146.479L245.879 164.231Z" fill="#C7C7C7"/>
<path d="M231.184 164.246H257.646L244.418 152.682L231.184 164.246Z" fill="#DBDBDB"/>
<path d="M275.714 164.231H231.184V171.339H275.714V164.231Z" fill="#DBDBDB"/>
<path d="M159.835 138.353H126.388V141.069H159.835V138.353Z" fill="#DBDBDB"/>
<path d="M223.182 144.654H126.388V147.37H223.182V144.654Z" fill="#DBDBDB"/>
<path d="M223.182 150.633H126.388V153.348H223.182V150.633Z" fill="#DBDBDB"/>
<path d="M223.182 156.611H126.388V159.327H223.182V156.611Z" fill="#DBDBDB"/>
<path d="M223.182 162.589H126.388V165.305H223.182V162.589Z" fill="#DBDBDB"/>
<path d="M223.182 168.561H126.388V171.276H223.182V168.561Z" fill="#DBDBDB"/>
<path d="M240.443 85.0172H206.996V92.2868H240.443V85.0172Z" fill="#DBDBDB"/>
<path d="M275.714 97.2969H206.996V100.012H275.714V97.2969Z" fill="#DBDBDB"/>
<path d="M275.714 103.275H206.996V105.991H275.714V103.275Z" fill="#DBDBDB"/>
<path d="M275.714 109.254H206.996V111.969H275.714V109.254Z" fill="#DBDBDB"/>
<path d="M275.714 115.232H206.996V117.948H275.714V115.232Z" fill="#DBDBDB"/>
<path d="M275.714 123.182H206.996V125.898H275.714V123.182Z" fill="#DBDBDB"/>
<path d="M275.714 129.161H206.996V131.876H275.714V129.161Z" fill="#DBDBDB"/>
<path d="M346.641 85.0172H285.474V92.4131H346.641V85.0172Z" fill="#CC0909"/>
<path d="M346.481 92.4763H285.642V208.487H346.481V92.4763Z" fill="white"/>
<path d="M346.648 208.677H285.474V92.2869H346.648V208.677ZM285.809 208.298H346.306V92.6658H285.809V208.298Z" fill="#DBDBDB"/>
<path d="M285.801 208.558L285.482 208.417L346.321 92.4062L346.634 92.5466L285.801 208.558Z" fill="#DBDBDB"/>
<path d="M346.321 208.558L285.482 92.5466L285.801 92.4062L346.634 208.417L346.321 208.558Z" fill="#DBDBDB"/>
<path d="M199.416 85.1436H126.519V131.743H199.416V85.1436Z" fill="white"/>
<path d="M126.403 131.876V131.757V85.0382H126.526H199.539V131.876H199.452H126.403ZM126.635 85.2698V131.638H199.314V85.2768L126.635 85.2698Z" fill="#DBDBDB"/>
<path d="M126.635 85.2699C132.762 89.024 138.86 92.8342 144.943 96.6514L163.149 108.173L181.282 119.821L190.316 125.687L199.306 131.617L190.127 125.961L180.999 120.242L162.785 108.721L144.659 97.0654C138.634 93.164 132.587 89.2766 126.635 85.2699Z" fill="#DBDBDB"/>
<path d="M199.299 85.2699C193.318 89.2485 187.3 93.164 181.275 97.0654L163.149 108.721L144.943 120.242L135.807 125.961L126.635 131.617L135.625 125.687L144.652 119.821L162.778 108.173L180.991 96.6514C187.096 92.8342 193.165 89.024 199.299 85.2699Z" fill="#DBDBDB"/>
<path d="M126.635 175.816V208.586H275.372V175.816H126.635Z" fill="white"/>
<path d="M275.619 175.725V208.705H126.388V175.725H275.619ZM275.125 208.494V175.908H126.861V208.494H275.125Z" fill="#DBDBDB"/>
<path d="M275.466 208.501L275.285 208.67L126.541 175.901L126.722 175.732L275.466 208.501Z" fill="#DBDBDB"/>
<path d="M275.466 175.901L126.722 208.67L126.541 208.501L275.285 175.732L275.466 175.901Z" fill="#DBDBDB"/>
<path d="M66.7692 56.575L51.2419 72.4722L52.8441 73.9308L68.3714 58.0337L66.7692 56.575Z" fill="#263238"/>
<path d="M67.9475 72.8077H52.0454V74.9339H67.9475V72.8077Z" fill="#455A64"/>
<path d="M67.9475 56.2407H52.0454V58.3669H67.9475V56.2407Z" fill="#455A64"/>
<path d="M52.8448 56.5693L51.2424 58.0277L66.7668 73.9275L68.3692 72.4691L52.8448 56.5693Z" fill="#455A64"/>
<path d="M66.7668 73.1407L51.2395 89.0378L52.8416 90.4965L68.3689 74.5994L66.7668 73.1407Z" fill="#263238"/>
<path d="M67.9475 89.3748H52.0454V91.5009H67.9475V89.3748Z" fill="#455A64"/>
<path d="M67.9475 72.8077H52.0454V74.9339H67.9475V72.8077Z" fill="#455A64"/>
<path d="M52.8414 73.1362L51.239 74.5946L66.7634 90.4944L68.3658 89.036L52.8414 73.1362Z" fill="#455A64"/>
<path d="M66.7648 89.7065L51.2375 105.604L52.8397 107.062L68.367 91.1652L66.7648 89.7065Z" fill="#263238"/>
<path d="M67.9475 105.942H52.0454V108.068H67.9475V105.942Z" fill="#455A64"/>
<path d="M67.9475 89.3748H52.0454V91.5009H67.9475V89.3748Z" fill="#455A64"/>
<path d="M52.8451 89.703L51.2427 91.1614L66.7671 107.061L68.3695 105.603L52.8451 89.703Z" fill="#455A64"/>
<path d="M66.77 106.272L51.2427 122.169L52.8448 123.628L68.3721 107.731L66.77 106.272Z" fill="#263238"/>
<path d="M67.9475 122.509H52.0454V124.635H67.9475V122.509Z" fill="#455A64"/>
<path d="M67.9475 105.942H52.0454V108.068H67.9475V105.942Z" fill="#455A64"/>
<path d="M52.849 106.27L51.2466 107.729L66.771 123.628L68.3734 122.17L52.849 106.27Z" fill="#455A64"/>
<path d="M66.768 122.845L51.2407 138.742L52.8429 140.201L68.3701 124.304L66.768 122.845Z" fill="#263238"/>
<path d="M67.9475 139.076H52.0454V141.202H67.9475V139.076Z" fill="#455A64"/>
<path d="M67.9475 122.509H52.0454V124.635H67.9475V122.509Z" fill="#455A64"/>
<path d="M52.8475 122.832L51.2451 124.29L66.7695 140.19L68.3719 138.731L52.8475 122.832Z" fill="#455A64"/>
<path d="M66.7729 139.411L51.2456 155.308L52.8478 156.766L68.375 140.869L66.7729 139.411Z" fill="#263238"/>
<path d="M67.9475 155.636H52.0454V157.762H67.9475V155.636Z" fill="#455A64"/>
<path d="M67.9475 139.076H52.0454V141.202H67.9475V139.076Z" fill="#455A64"/>
<path d="M52.8444 139.399L51.2419 140.857L66.7664 156.757L68.3688 155.298L52.8444 139.399Z" fill="#455A64"/>
<path d="M66.7656 155.971L51.2383 171.869L52.8404 173.327L68.3677 157.43L66.7656 155.971Z" fill="#263238"/>
<path d="M67.9475 172.203H52.0454V174.329H67.9475V172.203Z" fill="#455A64"/>
<path d="M67.9475 155.636H52.0454V157.762H67.9475V155.636Z" fill="#455A64"/>
<path d="M52.8478 155.959L51.2454 157.417L66.7698 173.317L68.3722 171.858L52.8478 155.959Z" fill="#455A64"/>
<path d="M66.7707 172.53L51.2434 188.427L52.8456 189.886L68.3728 173.989L66.7707 172.53Z" fill="#263238"/>
<path d="M67.9475 188.77H52.0454V190.896H67.9475V188.77Z" fill="#455A64"/>
<path d="M67.9475 172.203H52.0454V174.329H67.9475V172.203Z" fill="#455A64"/>
<path d="M52.8517 172.526L51.2493 173.984L66.7737 189.884L68.3761 188.425L52.8517 172.526Z" fill="#455A64"/>
<path d="M66.7758 189.089L51.2485 204.986L52.8507 206.445L68.378 190.547L66.7758 189.089Z" fill="#263238"/>
<path d="M67.9475 205.337H52.0454V207.463H67.9475V205.337Z" fill="#455A64"/>
<path d="M67.9475 188.77H52.0454V190.896H67.9475V188.77Z" fill="#455A64"/>
<path d="M52.848 189.092L51.2456 190.551L66.77 206.451L68.3724 204.992L52.848 189.092Z" fill="#455A64"/>
<path d="M66.7691 205.668L51.2476 221.57L52.8502 223.028L68.3718 207.126L66.7691 205.668Z" fill="#263238"/>
<path d="M67.9475 221.904H52.0454V224.03H67.9475V221.904Z" fill="#455A64"/>
<path d="M67.9475 205.337H52.0454V207.463H67.9475V205.337Z" fill="#455A64"/>
<path d="M52.8519 205.666L51.2495 207.125L66.7739 223.025L68.3763 221.566L52.8519 205.666Z" fill="#455A64"/>
<path d="M66.7637 222.229L51.2422 238.132L52.8449 239.59L68.3664 223.687L66.7637 222.229Z" fill="#263238"/>
<path d="M67.9475 238.471H52.0454V240.597H67.9475V238.471Z" fill="#455A64"/>
<path d="M67.9475 221.904H52.0454V224.03H67.9475V221.904Z" fill="#455A64"/>
<path d="M52.8507 222.221L51.2483 223.68L66.7727 239.579L68.3751 238.121L52.8507 222.221Z" fill="#455A64"/>
<path d="M71.1306 247.894V238.246H48.1932V247.894H71.1306Z" fill="#455A64"/>
<path d="M53.9351 238.85L53.9351 57.111H48.1862L48.1862 238.85H53.9351Z" fill="#455A64"/>
<path d="M71.1306 238.849L71.1306 57.1107H65.3817L65.3817 238.849H71.1306Z" fill="#455A64"/>
<path d="M222.222 55.8128L205.041 39.4633L60.0182 13.3743L15.9459 39.5896L14.7903 37.7722L59.5894 11.1289L206.102 37.4915L223.771 54.2901L222.222 55.8128Z" fill="#455A64"/>
<path d="M77.5046 41.7578L59.8437 18.0545L42.9386 41.7227L39.3047 39.3018L59.7637 10.6587L81.0877 39.2668L77.5046 41.7578Z" fill="#263238"/>
<path d="M188.87 41.3644L187.359 42.9115L203.828 57.8999L205.338 56.3528L188.87 41.3644Z" fill="#263238"/>
<path d="M206.364 41.7578H204.162V57.1109H206.364V41.7578Z" fill="#455A64"/>
<path d="M189.205 41.7578H187.002V57.1109H189.205V41.7578Z" fill="#455A64"/>
<path d="M203.824 41.3622L187.356 56.3506L188.867 57.8977L205.335 42.9092L203.824 41.3622Z" fill="#455A64"/>
<path d="M171.707 41.3642L170.196 42.9113L186.664 57.8997L188.175 56.3526L171.707 41.3642Z" fill="#263238"/>
<path d="M189.205 41.7578H187.002V57.1109H189.205V41.7578Z" fill="#455A64"/>
<path d="M172.045 41.7578H169.843V57.1109H172.045V41.7578Z" fill="#455A64"/>
<path d="M186.647 41.3294L170.182 56.3206L171.692 57.8674L188.158 42.8762L186.647 41.3294Z" fill="#455A64"/>
<path d="M154.544 41.3642L153.033 42.9113L169.501 57.8997L171.012 56.3526L154.544 41.3642Z" fill="#263238"/>
<path d="M172.045 41.7578H169.843V57.1109H172.045V41.7578Z" fill="#455A64"/>
<path d="M154.886 41.7578H152.683V57.1109H154.886V41.7578Z" fill="#455A64"/>
<path d="M169.49 41.328L153.025 56.3192L154.536 57.866L171.001 42.8748L169.49 41.328Z" fill="#455A64"/>
<path d="M137.388 41.364L135.877 42.9111L152.345 57.8996L153.856 56.3525L137.388 41.364Z" fill="#263238"/>
<path d="M154.886 41.7578H152.683V57.1109H154.886V41.7578Z" fill="#455A64"/>
<path d="M137.726 41.7578H135.524V57.1109H137.726V41.7578Z" fill="#455A64"/>
<path d="M152.333 41.3338L135.867 56.325L137.378 57.8718L153.844 42.8806L152.333 41.3338Z" fill="#455A64"/>
<path d="M120.229 41.3589L118.719 42.906L135.187 57.8944L136.698 56.3473L120.229 41.3589Z" fill="#263238"/>
<path d="M137.726 41.7578H135.524V57.1109H137.726V41.7578Z" fill="#455A64"/>
<path d="M120.574 41.7578H118.372V57.1109H120.574V41.7578Z" fill="#455A64"/>
<path d="M135.176 41.3394L118.71 56.3306L120.221 57.8774L136.686 42.8862L135.176 41.3394Z" fill="#455A64"/>
<path d="M103.073 41.3589L101.563 42.906L118.031 57.8944L119.542 56.3473L103.073 41.3589Z" fill="#263238"/>
<path d="M120.574 41.7578H118.372V57.1109H120.574V41.7578Z" fill="#455A64"/>
<path d="M103.415 41.7578H101.212V57.1109H103.415V41.7578Z" fill="#455A64"/>
<path d="M118.018 41.3382L101.552 56.3293L103.063 57.8762L119.529 42.885L118.018 41.3382Z" fill="#455A64"/>
<path d="M85.9102 41.3588L84.3997 42.9059L100.868 57.8943L102.379 56.3472L85.9102 41.3588Z" fill="#263238"/>
<path d="M103.415 41.7578H101.212V57.1109H103.415V41.7578Z" fill="#455A64"/>
<path d="M86.2551 41.7578H84.053V57.1109H86.2551V41.7578Z" fill="#455A64"/>
<path d="M100.866 41.339L84.4004 56.3302L85.9112 57.877L102.377 42.8858L100.866 41.339Z" fill="#455A64"/>
<path d="M68.7542 41.3588L67.2437 42.9059L83.712 57.8943L85.2226 56.3472L68.7542 41.3588Z" fill="#263238"/>
<path d="M86.2551 41.7578H84.053V57.1109H86.2551V41.7578Z" fill="#455A64"/>
<path d="M69.0957 41.7578H66.8936V57.1109H69.0957V41.7578Z" fill="#455A64"/>
<path d="M83.709 41.3378L67.2434 56.329L68.7543 57.8758L85.2199 42.8846L83.709 41.3378Z" fill="#455A64"/>
<path d="M51.5911 41.3587L50.0806 42.9058L66.5489 57.8942L68.0595 56.3471L51.5911 41.3587Z" fill="#263238"/>
<path d="M69.0957 41.7578H66.8936V57.1109H69.0957V41.7578Z" fill="#455A64"/>
<path d="M51.9363 41.7578H49.7341V57.1109H51.9363V41.7578Z" fill="#455A64"/>
<path d="M66.5442 41.3364L50.0786 56.3276L51.5895 57.8745L68.0551 42.8833L66.5442 41.3364Z" fill="#455A64"/>
<path d="M34.4351 41.3586L32.9246 42.9056L49.3929 57.8941L50.9035 56.347L34.4351 41.3586Z" fill="#263238"/>
<path d="M51.9363 41.7578H49.7341V57.1109H51.9363V41.7578Z" fill="#455A64"/>
<path d="M34.7769 41.7578H32.5747V57.1109H34.7769V41.7578Z" fill="#455A64"/>
<path d="M49.387 41.3353L32.9214 56.3265L34.4322 57.8734L50.8979 42.8822L49.387 41.3353Z" fill="#455A64"/>
<path d="M17.6762 41.474L16.1567 43.0261L32.6782 58.1031L34.1977 56.5511L17.6762 41.474Z" fill="#263238"/>
<path d="M34.7769 41.7578H32.5747V57.1109H34.7769V41.7578Z" fill="#455A64"/>
<path d="M17.6174 41.7578H15.4153V57.1109H17.6174V41.7578Z" fill="#455A64"/>
<path d="M32.2298 41.3411L15.7642 56.3323L17.275 57.8791L33.7406 42.8879L32.2298 41.3411Z" fill="#455A64"/>
<path d="M14.7683 37.7371H4.78955V59.8825H14.7683V37.7371Z" fill="#263238"/>
<path d="M24.7619 37.7371H14.7686V59.8825H24.7619V37.7371Z" fill="#455A64"/>
<path d="M37.9528 59.8826H18.7947V70.9272H37.9528V59.8826Z" fill="#455A64"/>
<path d="M223.771 54.332H14.7686V59.8824H223.771V54.332Z" fill="#455A64"/>
<path d="M211.844 43.2875H14.7686V37.7371H206.226L211.844 43.2875Z" fill="#455A64"/>
<path d="M210.121 41.7578H207.919V57.1109H210.121V41.7578Z" fill="#455A64"/>
<path d="M129.623 120.242L143.432 118.109L157.24 116.046L184.887 112.025L184.96 112.018L185.033 112.032L231.038 123.554L254.034 129.371L277 135.266L253.939 129.715L230.9 124.081L184.851 112.706L184.996 112.713L157.32 116.565L143.482 118.439L129.623 120.242Z" fill="#263238"/>
<path d="M176.493 62.1489H174.291V93.5848H176.493V62.1489Z" fill="#263238"/>
<path d="M195.149 62.8506H192.947V94.2865H195.149V62.8506Z" fill="#263238"/>
<path d="M199.416 59.8826H170.337V64.4085H199.416V59.8826Z" fill="#455A64"/>
<path d="M185.978 98.8688L185.73 103.591L185.004 102.777C185.79 102.973 186.541 103.285 187.228 103.703C187.936 104.115 188.534 104.682 188.972 105.359C189.394 106.042 189.607 106.826 189.586 107.621C189.565 108.416 189.312 109.189 188.856 109.85C188.429 110.475 187.843 110.983 187.155 111.327C186.467 111.671 185.698 111.839 184.924 111.815C184.191 111.757 183.482 111.537 182.852 111.172C182.222 110.807 181.687 110.307 181.29 109.71C181.722 110.241 182.274 110.668 182.904 110.96C183.534 111.252 184.225 111.401 184.924 111.394C185.588 111.354 186.231 111.152 186.792 110.805C187.353 110.459 187.813 109.981 188.129 109.415C188.423 108.889 188.559 108.294 188.521 107.697C188.482 107.101 188.271 106.527 187.911 106.04C187.087 105.134 185.946 104.552 184.706 104.405L184.037 104.293L184.001 103.591L183.761 98.8688H185.978Z" fill="#263238"/>
<path d="M199.416 89.1851V96.8897L184.873 100.223L170.337 96.8897V89.1851H199.416Z" fill="#455A64"/>
<path d="M177.009 93.7042C177.011 94.0279 176.912 94.3447 176.727 94.6145C176.542 94.8843 176.278 95.0949 175.969 95.2197C175.66 95.3445 175.319 95.3779 174.99 95.3156C174.661 95.2533 174.358 95.0982 174.121 94.8698C173.883 94.6414 173.721 94.3501 173.655 94.0328C173.589 93.7155 173.623 93.3864 173.751 93.0872C173.878 92.7881 174.096 92.5323 174.374 92.3523C174.653 92.1724 174.98 92.0763 175.316 92.0763C175.538 92.0754 175.758 92.1168 175.963 92.1982C176.169 92.2796 176.355 92.3994 176.513 92.5506C176.67 92.7019 176.795 92.8817 176.88 93.0796C176.965 93.2776 177.009 93.4899 177.009 93.7042Z" fill="#263238"/>
<path d="M196.116 93.7042C196.116 94.0262 196.018 94.3409 195.832 94.6086C195.647 94.8764 195.384 95.085 195.076 95.2082C194.767 95.3314 194.428 95.3637 194.101 95.3009C193.774 95.2381 193.474 95.083 193.238 94.8553C193.002 94.6277 192.842 94.3376 192.777 94.0218C192.711 93.706 192.745 93.3787 192.872 93.0812C193 92.7838 193.216 92.5295 193.494 92.3507C193.771 92.1718 194.097 92.0763 194.43 92.0763C194.877 92.0763 195.306 92.2478 195.623 92.5531C195.939 92.8584 196.116 93.2725 196.116 93.7042Z" fill="#263238"/>
<path d="M125.102 152.336L273.397 167.738L277.016 135.262L128.721 119.86L125.102 152.336Z" fill="#CC0909"/>
<path d="M206.168 153.685L274.166 160.751L242.129 139.56L206.168 153.685Z" fill="#CC0909"/>
<path opacity="0.2" d="M206.168 153.685L274.166 160.751L242.129 139.56L206.168 153.685Z" fill="black"/>
<path d="M172.685 150.226L232.986 156.492L204.118 141.861L172.685 150.226Z" fill="#CC0909"/>
<path opacity="0.1" d="M172.685 150.226L232.986 156.492L204.118 141.861L172.685 150.226Z" fill="black"/>
<path d="M274.156 160.761L125.86 145.359L125.08 152.357L273.376 167.759L274.156 160.761Z" fill="#CC0909"/>
<path opacity="0.1" d="M274.156 160.761L125.86 145.359L125.08 152.357L273.376 167.759L274.156 160.761Z" fill="black"/>
<path opacity="0.6" d="M146.993 132.536C146.891 133.408 146.524 134.232 145.938 134.903C145.352 135.574 144.574 136.062 143.701 136.307C142.827 136.551 141.899 136.54 141.032 136.275C140.165 136.01 139.399 135.503 138.831 134.818C138.262 134.133 137.917 133.301 137.838 132.426C137.759 131.552 137.95 130.675 138.387 129.905C138.824 129.135 139.487 128.508 140.293 128.102C141.099 127.696 142.012 127.53 142.915 127.624C143.518 127.686 144.102 127.863 144.634 128.143C145.165 128.424 145.634 128.804 146.013 129.261C146.392 129.717 146.674 130.242 146.842 130.804C147.01 131.366 147.061 131.955 146.993 132.536Z" fill="white"/>
<path d="M63.5429 12.2516C63.5429 12.9622 63.3246 13.6568 62.9158 14.2476C62.5069 14.8384 61.9257 15.2989 61.2458 15.5708C60.5658 15.8427 59.8176 15.9139 59.0958 15.7752C58.3739 15.6366 57.7109 15.2945 57.1905 14.792C56.6701 14.2896 56.3157 13.6494 56.1721 12.9525C56.0285 12.2556 56.1022 11.5332 56.3838 10.8768C56.6655 10.2203 57.1424 9.65918 57.7544 9.26441C58.3663 8.86964 59.0858 8.65894 59.8217 8.65894C60.8086 8.65894 61.7551 9.03745 62.453 9.7112C63.1508 10.385 63.5429 11.2988 63.5429 12.2516Z" fill="#A6A6A6"/>
<path d="M61.5445 12.2515C61.5459 12.5852 61.4446 12.9118 61.2535 13.1898C61.0624 13.4678 60.7901 13.6847 60.4711 13.8131C60.152 13.9414 59.8007 13.9753 59.4617 13.9106C59.1226 13.8458 58.8112 13.6853 58.5668 13.4493C58.3224 13.2134 58.1561 12.9127 58.0891 12.5854C58.022 12.258 58.0572 11.9188 58.1901 11.6108C58.323 11.3028 58.5477 11.0399 58.8357 10.8554C59.1236 10.6709 59.4618 10.5731 59.8074 10.5745C60.2681 10.5745 60.71 10.7512 61.0357 11.0657C61.3615 11.3802 61.5445 11.8067 61.5445 12.2515Z" fill="#455A64"/>
<path d="M75.7169 247.894H43.6074V255.22H75.7169V247.894Z" fill="#263238"/>
<path d="M82.6792 255.22H36.6445V269.591H82.6792V255.22Z" fill="#455A64"/>
<path d="M78.3332 72.6955H43.9707V35.9478H66.4502C68.3499 35.9471 70.185 36.6128 71.6143 37.821C73.0435 39.0292 73.9693 40.6975 74.2196 42.5156L78.3332 72.6955Z" fill="#CC0909"/>
<path d="M68.9795 61.5384H52.8739C52.6986 61.5419 52.5239 61.5158 52.3579 61.4612C51.9844 61.3528 51.6569 61.1312 51.4239 60.8292C51.191 60.5271 51.0648 60.1608 51.0642 59.7842V40.1578H62.5184C62.9039 40.1535 63.2889 40.1888 63.6667 40.2631C64.5271 40.4051 65.3468 40.7207 66.0724 41.1893C66.576 41.5136 67.0267 41.9085 67.4096 42.3611C68.1957 43.2559 68.7001 44.3491 68.8632 45.5117L70.7965 59.5456C70.8295 59.7948 70.8072 60.0479 70.731 60.2881C70.6548 60.5282 70.5264 60.75 70.3545 60.9385C70.1826 61.1271 69.9711 61.2781 69.734 61.3815C69.4969 61.485 69.2397 61.5385 68.9795 61.5384Z" fill="#263238"/>
<g opacity="0.4">
<path d="M67.2498 51.3008C67.2507 51.5293 67.2042 51.7557 67.1131 51.9666C67.022 52.1775 66.888 52.3686 66.7192 52.5288L57.3945 61.5385H52.8739C52.6986 61.542 52.5239 61.5159 52.3579 61.4613L64.1682 50.0658C64.4216 49.8241 64.7434 49.6599 65.0931 49.5939C65.4427 49.528 65.8048 49.5631 66.1339 49.695C66.463 49.8269 66.7444 50.0496 66.9429 50.3353C67.1414 50.6209 67.2482 50.9568 67.2498 51.3008Z" fill="white"/>
<path d="M67.4096 42.3681L51.0642 58.1422V55.6863L66.0723 41.1963C66.576 41.5206 67.0267 41.9155 67.4096 42.3681Z" fill="white"/>
<path d="M63.6667 40.2702L54.3856 49.2308C54.1955 49.4137 53.9537 49.5381 53.6905 49.5885C53.4273 49.6389 53.1545 49.6129 52.9066 49.5138C52.6586 49.4148 52.4466 49.2471 52.2972 49.0319C52.1479 48.8167 52.0678 48.5636 52.0671 48.3046C52.0683 48.1346 52.1042 47.9665 52.1728 47.81C52.2414 47.6535 52.3413 47.5115 52.4669 47.3924L59.9528 40.1579H62.5183C62.9041 40.1559 63.2891 40.1936 63.6667 40.2702Z" fill="white"/>
</g>
<path d="M41.5432 225.637L40.8527 230.408L40.1041 235.538L33.2723 282.278H22.1089L28.9407 235.538L29.6893 230.408L30.3797 225.637H41.5432Z" fill="#CC0909"/>
<path opacity="0.1" d="M39.9296 225.637C39.3409 230.373 38.7086 235.103 38.0691 239.825L36.0995 253.999L34.0354 268.145L32.9743 275.226L31.8623 282.285L32.7708 275.19L33.7447 268.089L35.7143 253.922L37.7783 239.769C38.4615 235.054 39.1738 230.317 39.9296 225.637Z" fill="black"/>
<path opacity="0.1" d="M40.8527 230.408L40.1041 235.538H28.9407L29.6893 230.408H40.8527Z" fill="black"/>
<path d="M96.6553 225.637L97.3457 230.408L98.0943 235.538L104.919 282.278H116.082L109.258 235.538L108.509 230.408L107.819 225.637H96.6553Z" fill="#CC0909"/>
<path opacity="0.1" d="M98.3052 225.637C98.8939 230.373 99.5262 235.103 100.166 239.825L102.135 253.999L104.199 268.145L105.261 275.226L106.373 282.285L105.464 275.19L104.512 268.096L102.542 253.929L100.478 239.776C99.7733 235.054 99.061 230.317 98.3052 225.637Z" fill="black"/>
<path opacity="0.1" d="M97.3457 230.408H108.509L109.258 235.538H98.0943L97.3457 230.408Z" fill="black"/>
<path d="M41.136 215.834H32.2837L33.3884 207.87H40.0385L41.136 215.834Z" fill="#CC0909"/>
<path opacity="0.1" d="M41.136 215.834H32.2837L33.3884 207.87H40.0385L41.136 215.834Z" fill="black"/>
<path d="M44.9588 202.172C44.9588 203.747 44.475 205.287 43.5685 206.597C42.6621 207.907 41.3738 208.927 39.8665 209.53C38.3592 210.133 36.7006 210.291 35.1004 209.983C33.5003 209.676 32.0304 208.918 30.8768 207.804C29.7231 206.69 28.9375 205.271 28.6192 203.726C28.3009 202.181 28.4643 200.58 29.0886 199.124C29.713 197.669 30.7703 196.425 32.1268 195.55C33.4834 194.675 35.0782 194.208 36.7097 194.208C37.793 194.208 38.8657 194.414 39.8665 194.814C40.8673 195.214 41.7767 195.801 42.5427 196.541C43.3087 197.28 43.9163 198.158 44.3308 199.124C44.7454 200.091 44.9588 201.126 44.9588 202.172Z" fill="#CC0909"/>
<path d="M42.9821 202.172C42.9835 203.37 42.6169 204.541 41.9286 205.538C41.2402 206.535 40.2612 207.312 39.1152 207.772C37.9692 208.231 36.7079 208.352 35.4907 208.119C34.2736 207.886 33.1553 207.31 32.2774 206.463C31.3995 205.617 30.8014 204.538 30.5588 203.363C30.3162 202.188 30.44 200.97 30.9145 199.863C31.389 198.756 32.1929 197.81 33.2245 197.144C34.2561 196.479 35.4691 196.123 36.7099 196.123C38.3721 196.123 39.9664 196.76 41.1424 197.895C42.3185 199.029 42.9802 200.567 42.9821 202.172Z" fill="white"/>
<path d="M41.9502 201.821C41.8935 201.1 41.6828 200.398 41.3313 199.759C40.9799 199.12 40.4952 198.559 39.908 198.109C39.3148 197.666 38.6351 197.343 37.9094 197.16C37.1838 196.977 36.4273 196.937 35.6853 197.043C34.9477 197.152 34.2424 197.412 33.6161 197.804C32.9897 198.195 32.4564 198.711 32.0514 199.316C31.6246 199.956 31.3448 200.676 31.2307 201.429C31.1166 202.182 31.171 202.95 31.39 203.681C31.7628 204.954 32.6438 206.031 33.8393 206.677C35.0022 207.317 36.3688 207.519 37.6767 207.245C38.9445 206.988 40.0816 206.316 40.8964 205.344C41.6994 204.384 42.163 203.201 42.2192 201.969C42.2192 201.913 42.2191 201.863 42.1683 201.863C42.1174 201.863 42.1101 201.906 42.1101 201.969C42.0794 202.465 41.9817 202.956 41.8194 203.428C41.4745 204.361 40.8803 205.189 40.0969 205.828C39.6982 206.148 39.2615 206.421 38.796 206.642C38.13 206.949 37.4042 207.116 36.6665 207.133C35.9287 207.15 35.1956 207.016 34.5152 206.74C33.829 206.462 33.2136 206.043 32.7117 205.512C32.2097 204.981 31.8331 204.352 31.6081 203.667C31.3832 202.968 31.3161 202.23 31.4114 201.504C31.5067 200.778 31.7621 200.08 32.1604 199.457C32.548 198.86 33.064 198.35 33.6734 197.963C34.2829 197.575 34.9715 197.319 35.6926 197.211C36.664 197.061 37.6595 197.167 38.5733 197.519C39.487 197.871 40.2848 198.456 40.8819 199.211C41.1806 199.597 41.425 200.019 41.6086 200.467C41.7718 200.922 41.8815 201.392 41.9357 201.87C41.9434 201.865 41.9489 201.857 41.9516 201.848C41.9542 201.839 41.9537 201.83 41.9502 201.821Z" fill="#CC0909"/>
<path d="M41.216 201.828C41.1604 201.211 40.9743 200.611 40.6693 200.065C40.3643 199.52 39.9469 199.04 39.4427 198.657C38.9316 198.276 38.3465 197.999 37.7223 197.841C37.0981 197.683 36.4473 197.648 35.8087 197.737C35.1751 197.827 34.5683 198.046 34.0284 198.378C33.4885 198.711 33.0277 199.15 32.6763 199.667C32.3003 200.219 32.0513 200.842 31.946 201.494C31.8406 202.147 31.8815 202.813 32.0658 203.449C32.2235 203.999 32.4922 204.513 32.8564 204.962C33.2206 205.412 33.6731 205.787 34.188 206.067C35.2067 206.616 36.3978 206.788 37.5385 206.551C38.6379 206.32 39.6211 205.73 40.3221 204.881C41.0159 204.047 41.418 203.023 41.4704 201.955C41.4704 201.906 41.4704 201.863 41.4195 201.863C41.3686 201.863 41.3614 201.899 41.3614 201.955C41.2988 202.812 41.0004 203.638 40.4971 204.347C39.9937 205.057 39.3036 205.623 38.4978 205.989C37.9242 206.259 37.2977 206.408 36.6599 206.426C36.0221 206.444 35.3876 206.331 34.7985 206.095C34.2045 205.852 33.6725 205.487 33.2394 205.025C32.8064 204.563 32.4828 204.016 32.2911 203.421C32.0987 202.814 32.044 202.174 32.1305 201.544C32.217 200.915 32.4428 200.31 32.7926 199.772C33.1299 199.264 33.5764 198.832 34.1018 198.505C34.6272 198.178 35.2192 197.964 35.8378 197.878C36.6653 197.756 37.5113 197.849 38.2892 198.148C39.067 198.446 39.7486 198.939 40.2639 199.576C40.5136 199.907 40.7187 200.268 40.8744 200.65C41.0188 201.038 41.1188 201.44 41.1724 201.849L41.216 201.828Z" fill="#CC0909"/>
<path d="M40.4821 201.835C40.4296 201.322 40.269 200.825 40.0103 200.373C39.7516 199.922 39.4002 199.527 38.9777 199.211C38.1281 198.58 37.0538 198.3 35.9906 198.432C35.4593 198.5 34.9489 198.676 34.4929 198.948C34.037 199.221 33.6458 199.583 33.3451 200.011C33.0203 200.475 32.8023 201 32.7058 201.552C32.6092 202.104 32.6364 202.67 32.7855 203.211C32.9137 203.682 33.1395 204.123 33.4493 204.508C33.7591 204.893 34.1464 205.213 34.5879 205.449C35.4547 205.923 36.4738 206.065 37.4442 205.849C38.3723 205.655 39.2034 205.16 39.799 204.446C40.3794 203.737 40.7172 202.871 40.7656 201.969C40.7656 201.927 40.7656 201.892 40.7147 201.892C40.6638 201.892 40.6566 201.892 40.6566 201.969C40.5963 202.689 40.3418 203.381 39.9185 203.977C39.4952 204.573 38.9178 205.051 38.2436 205.365C37.7607 205.597 37.2319 205.726 36.6928 205.744C36.1538 205.762 35.617 205.669 35.1184 205.47C34.6143 205.264 34.1641 204.951 33.8008 204.555C33.4374 204.16 33.17 203.691 33.018 203.183C32.8601 202.67 32.8193 202.13 32.8983 201.601C32.9774 201.072 33.1744 200.565 33.4759 200.116C33.7622 199.698 34.138 199.344 34.578 199.077C35.0181 198.811 35.5122 198.639 36.0269 198.573C36.7099 198.495 37.4022 198.574 38.0474 198.804C38.6952 199.039 39.2635 199.442 39.6899 199.969C39.9009 200.241 40.0743 200.538 40.206 200.853C40.3329 201.175 40.4231 201.509 40.4749 201.849C40.4749 201.849 40.4894 201.849 40.4821 201.835Z" fill="#CC0909"/>
<path d="M39.748 201.842C39.6995 201.429 39.565 201.03 39.3527 200.668C39.1404 200.306 38.8546 199.99 38.5124 199.737C37.8341 199.244 36.988 199.016 36.1431 199.099C35.7093 199.145 35.2906 199.279 34.9147 199.494C34.5389 199.708 34.2144 199.996 33.9628 200.341C33.6887 200.716 33.5015 201.144 33.4137 201.596C33.3259 202.047 33.3397 202.512 33.454 202.958C33.5523 203.347 33.7319 203.713 33.9819 204.033C34.2319 204.352 34.5469 204.619 34.9076 204.817C35.626 205.206 36.4702 205.316 37.2696 205.126C38.0361 204.953 38.7168 204.529 39.1956 203.926C39.6636 203.345 39.9373 202.64 39.9806 201.905C39.9806 201.87 39.9806 201.842 39.9297 201.842C39.9136 201.844 39.8988 201.851 39.8881 201.863C39.8773 201.875 39.8714 201.89 39.8715 201.905C39.8162 202.488 39.6067 203.047 39.263 203.529C38.9194 204.01 38.4532 204.399 37.9092 204.656C37.5197 204.853 37.0903 204.966 36.651 204.987C36.2116 205.008 35.7729 204.935 35.3655 204.775C34.9653 204.608 34.6081 204.358 34.3192 204.043C34.0304 203.728 33.8169 203.355 33.6939 202.951C33.5707 202.533 33.5433 202.095 33.6136 201.666C33.6839 201.237 33.8502 200.828 34.1009 200.467C34.3354 200.137 34.6415 199.86 34.9979 199.655C35.3543 199.45 35.7525 199.323 36.1649 199.281C36.704 199.235 37.247 199.302 37.7566 199.478C38.2699 199.659 38.7222 199.972 39.0648 200.383C39.2376 200.598 39.3817 200.834 39.4936 201.084C39.595 201.344 39.6728 201.612 39.7262 201.884C39.7262 201.884 39.7553 201.849 39.748 201.842Z" fill="#CC0909"/>
<path d="M105.718 215.834H96.866L97.9707 207.87H104.621L105.718 215.834Z" fill="#CC0909"/>
<path opacity="0.1" d="M105.718 215.834H96.866L97.9707 207.87H104.621L105.718 215.834Z" fill="black"/>
<path d="M109.541 202.172C109.541 203.747 109.057 205.287 108.151 206.597C107.245 207.907 105.956 208.927 104.449 209.53C102.942 210.133 101.283 210.291 99.6829 209.983C98.0828 209.676 96.6129 208.918 95.4593 207.804C94.3057 206.69 93.52 205.271 93.2017 203.726C92.8834 202.181 93.0468 200.58 93.6711 199.124C94.2955 197.669 95.3528 196.425 96.7093 195.55C98.0659 194.675 99.6607 194.208 101.292 194.208C102.376 194.208 103.448 194.414 104.449 194.814C105.45 195.214 106.359 195.801 107.125 196.541C107.891 197.28 108.499 198.158 108.913 199.124C109.328 200.091 109.541 201.126 109.541 202.172Z" fill="#CC0909"/>
<path d="M107.564 202.172C107.566 203.37 107.199 204.541 106.511 205.538C105.823 206.535 104.843 207.312 103.697 207.772C102.552 208.231 101.29 208.352 100.073 208.119C98.8558 207.886 97.7376 207.31 96.8597 206.463C95.9818 205.617 95.3837 204.538 95.1411 203.363C94.8985 202.188 95.0223 200.97 95.4968 199.863C95.9713 198.756 96.7752 197.81 97.8068 197.144C98.8384 196.479 100.051 196.123 101.292 196.123C102.954 196.123 104.549 196.76 105.725 197.895C106.901 199.029 107.562 200.567 107.564 202.172Z" fill="white"/>
<path d="M106.532 201.821C106.476 201.1 106.265 200.398 105.913 199.759C105.562 199.12 105.077 198.559 104.49 198.109C103.897 197.666 103.217 197.343 102.491 197.16C101.766 196.977 101.009 196.937 100.267 197.043C99.5297 197.152 98.8245 197.412 98.1981 197.804C97.5717 198.195 97.0385 198.711 96.6334 199.316C96.2067 199.956 95.9268 200.676 95.8127 201.429C95.6987 202.182 95.753 202.95 95.9721 203.681C96.3448 204.954 97.2258 206.031 98.4213 206.677C99.5842 207.317 100.951 207.519 102.259 207.245C103.527 206.988 104.664 206.316 105.478 205.344C106.285 204.386 106.749 203.202 106.801 201.969C106.801 201.913 106.801 201.863 106.75 201.863C106.699 201.863 106.692 201.906 106.692 201.969C106.665 202.466 106.567 202.957 106.401 203.428C106.057 204.361 105.462 205.189 104.679 205.828C104.28 206.148 103.844 206.421 103.378 206.642C102.712 206.949 101.986 207.116 101.249 207.133C100.511 207.15 99.7776 207.016 99.0972 206.74C98.411 206.462 97.7956 206.043 97.2937 205.512C96.7917 204.981 96.4152 204.352 96.1901 203.667C95.9652 202.968 95.8982 202.23 95.9934 201.504C96.0887 200.778 96.3441 200.08 96.7425 199.457C97.13 198.86 97.646 198.35 98.2554 197.963C98.8649 197.575 99.5535 197.319 100.275 197.211C101.246 197.061 102.242 197.167 103.155 197.519C104.069 197.871 104.867 198.456 105.464 199.211C105.763 199.597 106.007 200.019 106.191 200.467C106.354 200.922 106.464 201.392 106.518 201.87C106.528 201.856 106.533 201.839 106.532 201.821Z" fill="#CC0909"/>
<path d="M105.798 201.828C105.743 201.211 105.557 200.611 105.252 200.065C104.947 199.52 104.529 199.04 104.025 198.657C103.514 198.276 102.929 197.999 102.305 197.841C101.68 197.683 101.03 197.648 100.391 197.737C99.7574 197.827 99.1506 198.046 98.6107 198.378C98.0708 198.711 97.61 199.15 97.2586 199.667C96.8826 200.219 96.6335 200.842 96.5282 201.494C96.4229 202.147 96.4638 202.813 96.6481 203.449C96.8058 203.999 97.0744 204.513 97.4386 204.962C97.8028 205.412 98.2554 205.787 98.7703 206.067C99.7889 206.616 100.98 206.788 102.121 206.551C103.22 206.32 104.203 205.73 104.904 204.881C105.598 204.047 106 203.023 106.053 201.955C106.053 201.906 106.053 201.863 106.002 201.863C105.951 201.863 105.944 201.899 105.944 201.955C105.881 202.812 105.583 203.638 105.079 204.347C104.576 205.057 103.886 205.623 103.08 205.989C102.506 206.259 101.88 206.408 101.242 206.426C100.604 206.444 99.9699 206.331 99.3808 206.095C98.7854 205.852 98.252 205.488 97.8176 205.026C97.3833 204.564 97.0586 204.017 96.8661 203.421C96.6737 202.814 96.619 202.174 96.7055 201.544C96.792 200.915 97.0178 200.31 97.3676 199.772C97.7049 199.264 98.1514 198.832 98.6768 198.505C99.2022 198.178 99.7942 197.964 100.413 197.878C101.24 197.756 102.086 197.849 102.864 198.148C103.642 198.446 104.324 198.939 104.839 199.576C105.089 199.907 105.294 200.268 105.449 200.65C105.594 201.038 105.694 201.44 105.747 201.849C105.747 201.849 105.806 201.842 105.798 201.828Z" fill="#CC0909"/>
<path d="M105.064 201.835C105.012 201.322 104.851 200.825 104.593 200.373C104.334 199.922 103.983 199.527 103.56 199.211C102.71 198.58 101.636 198.3 100.573 198.432C100.042 198.5 99.5311 198.676 99.0752 198.948C98.6193 199.221 98.2281 199.583 97.9274 200.011C97.6026 200.475 97.3846 201 97.2881 201.552C97.1915 202.104 97.2187 202.67 97.3677 203.211C97.496 203.682 97.7218 204.123 98.0316 204.508C98.3414 204.893 98.7287 205.213 99.1702 205.449C100.037 205.923 101.056 206.065 102.026 205.849C102.955 205.655 103.786 205.16 104.381 204.446C104.965 203.738 105.303 202.872 105.348 201.969C105.348 201.927 105.348 201.892 105.297 201.892C105.246 201.892 105.239 201.892 105.239 201.969C105.179 202.689 104.924 203.381 104.501 203.977C104.078 204.573 103.5 205.051 102.826 205.365C102.343 205.597 101.814 205.726 101.275 205.744C100.736 205.762 100.199 205.669 99.7007 205.47C99.197 205.268 98.7459 204.961 98.3802 204.57C98.0144 204.179 97.7431 203.715 97.5858 203.211C97.4279 202.698 97.387 202.158 97.4661 201.629C97.5451 201.1 97.7422 200.593 98.0437 200.144C98.3299 199.726 98.7057 199.372 99.1458 199.105C99.5858 198.839 100.08 198.667 100.595 198.601C101.278 198.523 101.97 198.602 102.615 198.832C103.109 199.004 103.559 199.275 103.935 199.629C104.311 199.982 104.605 200.409 104.795 200.881C104.922 201.203 105.013 201.537 105.064 201.878C105.064 201.878 105.072 201.849 105.064 201.835Z" fill="#CC0909"/>
<path d="M104.33 201.842C104.281 201.429 104.147 201.03 103.935 200.668C103.722 200.306 103.437 199.99 103.094 199.737C102.416 199.243 101.57 199.015 100.725 199.099C100.291 199.145 99.8726 199.28 99.4967 199.494C99.1209 199.708 98.7964 199.997 98.5448 200.341C98.272 200.717 98.0855 201.145 97.9978 201.596C97.9101 202.048 97.9231 202.512 98.036 202.958C98.1343 203.347 98.3139 203.713 98.5639 204.033C98.8139 204.353 99.1289 204.62 99.4896 204.818C100.208 205.206 101.052 205.316 101.852 205.126C102.618 204.954 103.299 204.53 103.778 203.926C104.246 203.345 104.519 202.64 104.563 201.906C104.563 201.87 104.563 201.842 104.512 201.842C104.496 201.844 104.481 201.852 104.47 201.863C104.459 201.875 104.453 201.89 104.454 201.906C104.398 202.488 104.189 203.047 103.845 203.529C103.501 204.01 103.035 204.399 102.491 204.656C102.102 204.854 101.672 204.966 101.233 204.987C100.794 205.008 100.355 204.935 99.9475 204.775C99.5339 204.611 99.1642 204.358 98.866 204.036C98.5678 203.714 98.3486 203.331 98.225 202.916C98.1018 202.498 98.0745 202.06 98.1447 201.631C98.215 201.202 98.3813 200.793 98.632 200.432C98.8666 200.102 99.1726 199.825 99.529 199.62C99.8854 199.415 100.284 199.288 100.696 199.246C101.235 199.2 101.778 199.267 102.288 199.443C102.801 199.624 103.253 199.937 103.596 200.348C103.769 200.563 103.913 200.799 104.025 201.05C104.126 201.309 104.204 201.577 104.257 201.849C104.257 201.849 104.337 201.849 104.33 201.842Z" fill="#CC0909"/>
<path d="M124.709 211.771H13.4819V232.31H124.709V211.771Z" fill="white"/>
<path d="M124.898 232.485H13.3V211.596H124.898V232.485ZM13.6998 232.134H124.535V211.947H13.6634L13.6998 232.134Z" fill="#263238"/>
<path d="M36.3465 211.771L28.2719 232.317H13.9106L21.978 211.771H36.3465Z" fill="#CC0909"/>
<path d="M65.7886 211.771L57.7213 232.317H43.3455L51.4201 211.771H65.7886Z" fill="#CC0909"/>
<path d="M95.2308 211.771L87.1562 232.317H72.7949L80.8695 211.771H95.2308Z" fill="#CC0909"/>
<path d="M124.68 211.771L116.606 232.317H102.237L110.304 211.771H124.68Z" fill="#CC0909"/>
<path d="M122.463 257.417H15.7349V270.419H122.463V257.417Z" fill="white"/>
<path d="M122.645 270.594H15.5752V257.262H122.645V270.594ZM15.9168 270.243H122.282V257.613H15.9168V270.243Z" fill="#263238"/>
<path d="M37.6693 257.417L29.9217 270.419H16.1418L23.8894 257.417H37.6693Z" fill="#CC0909"/>
<path d="M65.9265 257.417L58.179 270.419H44.3918L52.1394 257.417H65.9265Z" fill="#CC0909"/>
<path d="M94.1695 257.417L86.4292 270.419H72.6421L80.3896 257.417H94.1695Z" fill="#CC0909"/>
<path d="M122.427 257.417L114.679 270.419H100.892L108.64 257.417H122.427Z" fill="#CC0909"/>
<path d="M85.9344 225.917C88.1534 216.938 82.4131 207.922 73.113 205.78C63.8128 203.637 54.4747 209.18 52.2557 218.159C50.0367 227.138 55.777 236.153 65.0771 238.296C74.3772 240.438 83.7154 234.896 85.9344 225.917Z" fill="white"/>
<path d="M69.0956 238.927C65.6353 238.927 62.2528 237.936 59.3758 236.08C56.4988 234.224 54.2566 231.586 52.9328 228.499C51.6089 225.412 51.2629 222.016 51.9385 218.74C52.6141 215.463 54.2809 212.454 56.7282 210.092C59.1755 207.73 62.2932 206.122 65.6872 205.471C69.0811 204.82 72.5987 205.156 75.7952 206.435C78.9916 207.714 81.7233 209.88 83.6446 212.659C85.566 215.437 86.5908 218.703 86.5893 222.044C86.5855 226.522 84.7409 230.815 81.4608 233.98C78.1807 237.146 73.7333 238.925 69.0956 238.927ZM69.0956 205.505C65.7075 205.505 62.3955 206.475 59.5784 208.293C56.7614 210.11 54.5657 212.693 53.2692 215.715C51.9726 218.737 51.6334 222.062 52.2944 225.271C52.9553 228.479 54.5868 231.426 56.9826 233.739C59.3783 236.052 62.4306 237.627 65.7536 238.265C69.0766 238.903 72.5209 238.576 75.6511 237.324C78.7812 236.072 81.4566 233.952 83.3389 231.233C85.2212 228.513 86.2259 225.315 86.2259 222.044C86.2221 217.659 84.416 213.454 81.2043 210.353C77.9926 207.253 73.6376 205.509 69.0956 205.505Z" fill="#263238"/>
<path d="M83.3763 225.327C85.2544 217.716 80.3861 210.076 72.5026 208.262C64.6191 206.449 56.7057 211.149 54.8276 218.761C52.9495 226.372 57.8178 234.012 65.7013 235.825C73.5848 237.639 81.4982 232.938 83.3763 225.327Z" fill="#CC0909"/>
<path d="M78.2965 220.395H59.8943V223.686H78.2965V220.395Z" fill="white"/>
<path d="M311.29 283.996L314.968 259.563L316.036 260.026L317.737 260.77L325.121 263.998L331.727 266.875L336.088 268.777L342.709 271.668L346.343 273.246C346.971 273.576 347.479 274.083 347.799 274.699C348.119 275.316 348.236 276.012 348.134 276.695C348.032 277.377 347.716 278.013 347.228 278.517C346.74 279.021 346.104 279.368 345.405 279.513L343.872 279.716L341.459 280.032L334.271 280.972L329.532 281.597L322.337 282.544L319.328 282.944L311.29 283.996Z" fill="#CC0909"/>
<g style="mix-blend-mode:multiply" opacity="0.1">
<path d="M316.217 260.244C315.854 261.163 315.401 262.046 314.866 262.883C312.62 266.265 310.999 273.184 312.22 281.127C312.29 281.985 312.473 282.832 312.765 283.646L314.306 283.548C314.306 283.548 321.479 268.349 344.933 272.573L342.752 271.605L336.139 268.728L331.778 266.826L325.164 263.935L316.217 260.244Z" fill="black"/>
</g>
<path d="M334.263 280.972L336.095 268.777L342.716 271.668L341.451 280.032L334.263 280.972Z" fill="#EBEBEB"/>
<path d="M322.33 282.544L325.121 263.991L331.742 266.882L329.525 281.597L322.33 282.544Z" fill="#EBEBEB"/>
<path d="M246.693 283.393H222.055L222.36 282.341L222.862 280.671L225.042 273.429L226.976 266.939L228.247 262.665L230.181 256.175L231.242 252.617C231.478 251.992 231.907 251.453 232.471 251.072C233.036 250.691 233.707 250.487 234.396 250.487C235.085 250.487 235.757 250.691 236.321 251.072C236.885 251.453 237.314 251.992 237.55 252.617L237.965 254.02L238.611 256.189L240.545 262.679L241.817 266.953L243.75 273.443L244.556 276.159L246.693 283.393Z" fill="#CC0909"/>
<path d="M247.602 289.561H215.223L220.384 277.218H252.762L247.602 289.561Z" fill="#CC0909"/>
<path d="M240.552 262.665H228.254L230.188 256.181H238.618L240.552 262.665Z" fill="#EBEBEB"/>
<path d="M243.757 273.429H225.05L226.983 266.938H241.824L243.757 273.429Z" fill="#EBEBEB"/>
<path d="M221.735 281.737C223.73 282.601 225.83 283.217 227.985 283.568C230.118 283.927 232.282 284.087 234.447 284.046C235.53 283.975 236.627 283.968 237.688 283.807C238.226 283.737 238.771 283.702 239.302 283.611C239.832 283.519 240.37 283.414 240.908 283.33C241.177 283.281 241.446 283.239 241.714 283.183L242.507 282.993L244.098 282.621C245.152 282.348 246.191 282.004 247.267 281.737C246.271 282.193 245.268 282.649 244.244 283.042L242.667 283.561L241.882 283.814C241.613 283.891 241.344 283.947 241.075 284.018L239.447 284.389C238.909 284.509 238.349 284.565 237.804 284.656C236.698 284.811 235.585 284.909 234.468 284.951C232.235 284.988 230.005 284.752 227.833 284.249C225.658 283.781 223.59 282.929 221.735 281.737Z" fill="#263238"/>
<g style="mix-blend-mode:multiply" opacity="0.1">
<path d="M222.586 282.144C223.542 282.352 224.476 282.646 225.377 283.021C229.011 284.621 236.082 285.126 243.793 282.923C244.629 282.739 245.437 282.454 246.199 282.074L245.886 280.67C245.886 280.67 229.897 276.18 230.813 254.006L230.166 256.174L228.233 262.665L226.961 266.938L225.028 273.429L222.586 282.144Z" fill="black"/>
</g>
<path d="M304.589 283.954L309.422 251.831L321.792 258.799L316.952 290.915L304.589 283.954Z" fill="#CC0909"/>
<path d="M316.908 272.089C316.217 278.025 314.001 282.656 311.937 282.432C309.873 282.207 308.775 277.218 309.466 271.282C310.156 265.345 312.373 260.721 314.444 260.946C316.515 261.17 317.598 266.159 316.908 272.089Z" fill="#263238"/>
<path d="M372.348 289.519C373.801 289.954 414.857 289.105 416.398 288.116C416.987 287.744 417.205 281.955 417.27 274.966C417.27 273.457 417.27 271.9 417.27 270.314C417.27 268.433 417.27 266.539 417.234 264.7C417.125 256.42 416.863 249.13 416.863 249.13L390.132 249.607L390.444 265.177L390.554 270.791L390.786 275.436C390.786 275.436 375.211 282.558 373.641 283.814C372.071 285.07 370.901 289.091 372.348 289.519Z" fill="#D3766A"/>
<path d="M372.348 289.519C373.801 289.954 414.857 289.105 416.398 288.116C416.987 287.744 417.205 281.955 417.27 274.966C417.27 273.457 417.27 271.9 417.27 270.314C417.27 268.433 417.27 266.539 417.234 264.7L390.444 265.177L390.554 270.791L390.786 275.436C390.786 275.436 375.211 282.558 373.641 283.814C372.071 285.07 370.901 289.091 372.348 289.519Z" fill="white"/>
<path d="M372.224 289.582C373.162 289.863 390.655 289.582 403.389 289.126C406.296 289.014 409.028 288.888 411.202 288.754C414.196 288.572 416.202 288.375 416.522 288.172C417.248 287.709 417.423 279.225 417.408 270.272L390.517 270.756L390.743 275.429C390.743 275.429 375.088 282.579 373.503 283.849C371.919 285.119 370.778 289.14 372.224 289.582Z" fill="#CC0909"/>
<path d="M372.776 287.975C379.695 287.667 407.662 287.056 414.494 287.274C414.552 287.274 414.552 287.274 414.494 287.274C407.64 287.723 379.71 288.116 372.784 288.06C372.638 288.081 372.631 287.982 372.776 287.975Z" fill="#263238"/>
<path d="M389.761 273.963C392.48 273.415 395.816 273.752 397.938 275.583C398.025 275.654 397.938 275.766 397.829 275.738C395.207 274.983 392.511 274.498 389.783 274.292C389.743 274.287 389.706 274.269 389.679 274.24C389.651 274.212 389.635 274.175 389.632 274.136C389.629 274.097 389.641 274.059 389.665 274.027C389.688 273.995 389.722 273.972 389.761 273.963Z" fill="#263238"/>
<path d="M387.821 275.148C390.539 274.601 393.875 274.938 395.997 276.769C396.084 276.839 395.997 276.952 395.888 276.923C393.268 276.165 390.57 275.68 387.843 275.478C387.803 275.473 387.766 275.455 387.738 275.426C387.71 275.398 387.694 275.361 387.691 275.322C387.689 275.283 387.7 275.244 387.724 275.213C387.747 275.181 387.782 275.158 387.821 275.148Z" fill="#263238"/>
<path d="M385.88 276.334C388.591 275.787 391.935 276.124 394.057 277.948C394.137 278.025 394.057 278.131 393.948 278.11C391.327 277.352 388.63 276.867 385.902 276.664C385.862 276.659 385.825 276.641 385.798 276.612C385.77 276.584 385.753 276.547 385.751 276.508C385.748 276.469 385.76 276.43 385.783 276.399C385.807 276.367 385.841 276.344 385.88 276.334Z" fill="#263238"/>
<path d="M383.94 277.52C386.651 276.973 389.994 277.302 392.116 279.134C392.196 279.204 392.116 279.316 392.007 279.295C389.386 278.537 386.689 278.053 383.962 277.85C383.921 277.845 383.884 277.826 383.857 277.798C383.829 277.769 383.813 277.732 383.81 277.693C383.808 277.655 383.819 277.616 383.843 277.584C383.866 277.553 383.901 277.53 383.94 277.52Z" fill="#263238"/>
<path d="M385.902 271.717C387.857 273.12 390.379 273.668 392.647 274.426C392.879 274.503 393.061 274.285 393.068 274.089C393.112 274.089 393.148 274.047 393.127 273.991C392.243 271.674 390.738 269.626 388.766 268.054C387.61 267.156 385.597 266.553 384.565 267.998C383.533 269.444 384.783 270.882 385.902 271.717ZM385.176 269.612C384.63 266.735 387.872 268.209 388.7 268.91C389.221 269.367 389.707 269.86 390.154 270.384C391.121 271.457 391.913 272.643 392.763 273.801C391.673 273.359 390.583 273.015 389.449 272.615C388.134 272.11 385.459 271.191 385.161 269.612H385.176Z" fill="#263238"/>
<path d="M402.131 269.78C401.404 268.152 399.348 268.328 398.018 268.966C395.755 270.105 393.842 271.799 392.472 273.878C392.466 273.888 392.462 273.898 392.461 273.909C392.46 273.92 392.462 273.931 392.466 273.941C392.471 273.952 392.477 273.961 392.486 273.968C392.495 273.975 392.505 273.981 392.516 273.983C392.472 274.18 392.603 274.432 392.85 274.404C395.234 274.131 397.814 274.124 400.038 273.155C401.339 272.58 402.793 271.317 402.131 269.78ZM396.375 273.289C395.205 273.45 394.035 273.555 392.872 273.759C393.921 272.769 395.023 271.833 396.172 270.952C396.736 270.533 397.328 270.151 397.945 269.808C398.904 269.303 402.393 268.552 401.223 271.254C400.583 272.734 397.763 273.078 396.411 273.268L396.375 273.289Z" fill="#263238"/>
<path opacity="0.2" d="M393.235 289.442C396.695 289.351 400.191 289.245 403.41 289.126C406.318 289.014 409.05 288.888 411.223 288.754C414.21 288.572 416.224 288.375 416.543 288.165C417.168 287.765 417.394 281.211 417.423 273.577C411.311 277.506 399.319 285.414 393.235 289.442Z" fill="black"/>
<path d="M388.155 275.127H418.68C418.68 275.127 417.009 208.824 417.336 207.281C418.121 203.59 435.505 145.139 435.505 145.139L411.412 145.539L403.185 145.672C403.185 145.672 403.912 155.411 403.607 156.443C399.58 170.624 391.724 194.84 390.117 203.814C387.29 219.399 388.155 275.127 388.155 275.127Z" fill="#263238"/>
<path d="M389.144 270.201C393.897 270.082 410.758 269.598 417.103 270.061C417.147 270.061 417.147 270.138 417.103 270.145C414.923 270.489 393.904 270.391 389.144 270.328C389.126 270.328 389.11 270.321 389.097 270.309C389.085 270.297 389.078 270.281 389.078 270.265C389.078 270.248 389.085 270.232 389.097 270.22C389.11 270.208 389.126 270.201 389.144 270.201Z" fill="#37474F"/>
<path d="M414.923 205.842C415.831 202.256 422.627 179.929 424.705 172.862C426.784 165.796 428.732 158.73 430.519 151.608C430.745 150.703 430.977 149.805 431.246 148.907C431.246 148.829 431.384 148.865 431.37 148.942C430.687 152.527 429.778 156.078 428.906 159.629C428.034 163.179 427.096 166.709 426.122 170.231C424.15 177.314 422.002 184.345 419.676 191.324C418.513 194.797 416.594 201.941 415.569 205.456C414.545 208.972 416.216 266.714 416.115 267.654C416.115 267.71 416.092 267.764 416.051 267.803C416.01 267.843 415.954 267.865 415.897 267.865C415.839 267.865 415.783 267.843 415.742 267.803C415.701 267.764 415.679 267.71 415.679 267.654C415.533 260.862 414.021 209.386 414.923 205.842Z" fill="#37474F"/>
<path d="M411.354 145.56C411.354 145.56 417.248 207.603 417.314 207.309C418.041 203.744 434.386 148.773 435.411 145.335L435.454 145.174L411.354 145.56Z" fill="#37474F"/>
<path d="M403.985 292.915C405.438 293.35 446.494 292.501 448.042 291.512C448.624 291.14 448.849 285.358 448.907 278.362C448.907 276.854 448.907 275.296 448.907 273.71C448.907 271.836 448.907 269.935 448.864 268.096C448.755 259.816 448.5 252.526 448.5 252.526L421.762 253.003L422.074 268.574L422.191 274.187L422.416 278.839C422.416 278.839 406.848 285.955 405.278 287.211C403.709 288.467 402.546 292.487 403.985 292.915Z" fill="#D3766A"/>
<path d="M403.985 292.915C405.438 293.35 446.494 292.501 448.042 291.512C448.624 291.14 448.849 285.358 448.907 278.362C448.907 276.853 448.907 275.296 448.907 273.71C448.907 271.836 448.907 269.935 448.864 268.096L422.074 268.573L422.191 274.187L422.416 278.839C422.416 278.839 406.848 285.954 405.278 287.21C403.709 288.466 402.546 292.487 403.985 292.915Z" fill="white"/>
<path d="M403.861 292.978C404.806 293.259 422.3 292.978 435.026 292.522C437.976 292.41 440.666 292.284 442.839 292.157C445.833 291.968 447.839 291.771 448.166 291.568C448.893 291.105 449.06 282.621 449.053 273.668L422.162 274.152L422.394 278.825C422.394 278.825 406.739 285.982 405.155 287.246C403.57 288.509 402.415 292.536 403.861 292.978Z" fill="#CC0909"/>
<path d="M404.406 291.365C411.325 291.056 439.292 290.452 446.117 290.663C446.175 290.663 446.175 290.698 446.117 290.705C439.27 291.154 411.332 291.54 404.406 291.484C404.275 291.484 404.275 291.365 404.406 291.365Z" fill="#263238"/>
<path d="M421.406 277.331C424.117 276.783 427.46 277.12 429.582 278.951C429.662 279.022 429.582 279.134 429.466 279.113C426.846 278.351 424.149 277.867 421.42 277.667C421.374 277.669 421.329 277.653 421.295 277.623C421.261 277.593 421.241 277.551 421.239 277.506C421.237 277.461 421.253 277.418 421.285 277.385C421.316 277.352 421.36 277.332 421.406 277.331Z" fill="#263238"/>
<path d="M419.465 278.544C422.176 277.997 425.519 278.334 427.642 280.165C427.721 280.236 427.642 280.348 427.525 280.32C424.904 279.564 422.207 279.081 419.48 278.881C419.433 278.883 419.388 278.867 419.354 278.837C419.32 278.807 419.3 278.765 419.298 278.72C419.296 278.675 419.313 278.632 419.344 278.599C419.375 278.566 419.419 278.546 419.465 278.544Z" fill="#263238"/>
<path d="M417.525 279.73C420.236 279.183 423.579 279.52 425.701 281.351C425.781 281.421 425.701 281.534 425.585 281.506C422.963 280.751 420.266 280.266 417.539 280.06C417.499 280.054 417.463 280.035 417.436 280.006C417.41 279.977 417.394 279.94 417.392 279.901C417.391 279.862 417.403 279.824 417.427 279.793C417.451 279.762 417.486 279.74 417.525 279.73Z" fill="#263238"/>
<path d="M415.584 280.916C418.295 280.369 421.638 280.706 423.761 282.53C423.84 282.607 423.761 282.72 423.644 282.692C421.024 281.933 418.326 281.449 415.599 281.246C415.559 281.24 415.523 281.221 415.496 281.192C415.469 281.163 415.454 281.126 415.452 281.087C415.45 281.048 415.462 281.01 415.486 280.979C415.511 280.948 415.545 280.926 415.584 280.916Z" fill="#263238"/>
<path d="M417.539 275.106C419.502 276.51 422.024 277.05 424.291 277.808C424.524 277.885 424.705 277.667 424.705 277.471C424.717 277.471 424.729 277.468 424.74 277.462C424.75 277.456 424.759 277.448 424.765 277.439C424.772 277.429 424.776 277.418 424.777 277.406C424.778 277.395 424.776 277.383 424.771 277.373C423.883 275.058 422.379 273.01 420.41 271.436C419.255 270.538 417.249 269.942 416.209 271.387C415.17 272.833 416.398 274.285 417.539 275.106ZM416.812 273.001C416.267 270.124 419.509 271.598 420.33 272.299C420.847 272.76 421.333 273.252 421.784 273.773C422.711 274.868 423.58 276.009 424.386 277.19C423.295 276.748 422.205 276.404 421.071 276.011C419.778 275.506 417.103 274.587 416.805 273.001H416.812Z" fill="#263238"/>
<path d="M433.776 273.176C433.049 271.556 430.985 271.724 429.655 272.363C427.394 273.502 425.485 275.196 424.117 277.274C424.108 277.281 424.1 277.289 424.095 277.299C424.09 277.309 424.088 277.32 424.088 277.331C424.088 277.341 424.09 277.352 424.095 277.362C424.1 277.372 424.108 277.38 424.117 277.387C424.117 277.583 424.204 277.829 424.451 277.801C426.835 277.527 429.415 277.52 431.639 276.552C432.976 275.976 434.43 274.72 433.776 273.176ZM428.012 276.685C426.842 276.846 425.679 276.952 424.516 277.155C425.566 276.166 426.667 275.229 427.816 274.348C428.377 273.931 428.967 273.551 429.582 273.212C430.549 272.699 434.037 271.956 432.867 274.65C432.22 276.131 429.408 276.474 428.012 276.664V276.685Z" fill="#263238"/>
<path d="M420.635 278.124L450.237 277.597C450.237 277.597 441.923 174.518 442.969 169.052C444.663 160.113 443.224 149.91 438.769 145.068L409.922 145.581C409.922 145.581 409.494 153.404 412.553 158.043C412.553 158.043 415.293 159.643 416.616 160.351L420.635 278.124Z" fill="#263238"/>
<path d="M421.449 273.05C425.941 272.861 424.647 272.854 429.139 272.706C431.319 272.636 445.775 272.18 447.839 272.468C447.883 272.468 447.883 272.545 447.839 272.552C445.797 272.931 431.348 273.142 429.153 273.17C424.654 273.233 425.948 273.17 421.457 273.17C421.443 273.166 421.432 273.159 421.423 273.148C421.415 273.138 421.41 273.126 421.409 273.112C421.408 273.099 421.411 273.086 421.419 273.075C421.426 273.064 421.437 273.055 421.449 273.05Z" fill="#37474F"/>
<path d="M410.729 156.801C413.589 158.071 416.332 159.573 418.927 161.292C418.95 161.304 418.966 161.324 418.973 161.347C418.98 161.371 418.976 161.396 418.964 161.418C418.951 161.439 418.93 161.455 418.906 161.462C418.881 161.468 418.855 161.465 418.833 161.453C416.064 160.05 413.229 158.646 410.54 157.109C410.507 157.081 410.485 157.043 410.478 157.001C410.471 156.959 410.48 156.916 410.502 156.879C410.525 156.843 410.56 156.815 410.601 156.801C410.642 156.786 410.688 156.786 410.729 156.801Z" fill="#37474F"/>
<path d="M414.392 156.33C414.574 156.868 414.718 157.416 414.821 157.972C414.944 158.404 414.981 158.854 414.93 159.299C414.93 159.383 414.792 159.376 414.748 159.299C414.518 158.884 414.359 158.436 414.276 157.972C414.131 157.467 413.971 156.962 413.84 156.45C413.828 156.381 413.844 156.31 413.885 156.252C413.925 156.194 413.987 156.153 414.058 156.138C414.128 156.123 414.203 156.134 414.265 156.17C414.327 156.206 414.373 156.263 414.392 156.33Z" fill="#37474F"/>
<path d="M414.581 153.643C414.494 153.18 414.407 152.717 414.312 152.24C414.218 151.762 414.08 151.278 414.022 150.794C414.022 150.724 413.884 150.745 413.898 150.794C413.985 151.257 414 151.741 414.051 152.197C414.102 152.654 414.153 153.138 414.211 153.601C414.32 154.478 414.487 155.355 414.683 156.218C414.206 156.15 413.751 155.977 413.353 155.713C412.973 155.355 412.718 154.892 412.626 154.387C412.474 153.853 412.35 153.32 412.19 152.794C411.981 152.217 411.827 151.623 411.732 151.019C411.732 150.941 411.594 150.97 411.609 151.019C411.747 152.286 412.018 153.537 412.416 154.752C412.59 155.236 412.706 155.72 413.142 155.98C413.645 156.232 414.197 156.38 414.763 156.415C414.828 156.45 414.923 156.415 414.916 156.337C414.872 155.509 414.77 154.534 414.581 153.643Z" fill="#37474F"/>
<path d="M438.267 168.779C438.434 166.73 438.74 164.695 438.936 162.646C439.29 158.539 438.952 154.404 437.933 150.401C437.933 150.324 438.035 150.296 438.049 150.366C438.936 153.883 439.385 157.49 439.386 161.109C439.277 164.723 438.66 168.295 438.66 171.915C438.66 175.536 439.038 179.234 439.386 182.883C439.735 186.532 440.019 190.229 440.339 193.899C441.603 208.635 442.795 223.42 444.009 238.183C444.35 242.302 444.67 246.428 444.997 250.547C445.324 254.666 445.833 265.086 446.073 269.289C446.073 269.654 445.535 269.633 445.491 269.289C444.699 261.893 444.038 248.302 443.435 240.885C442.831 233.468 442.221 226.198 441.61 218.852C441 211.505 440.411 204.165 439.815 196.825C439.517 193.156 439.234 189.479 438.943 185.809C438.652 182.139 438.304 178.49 438.216 174.827C438.117 172.812 438.134 170.792 438.267 168.779Z" fill="#37474F"/>
<path d="M427.7 150.324C427.704 150.313 427.711 150.304 427.721 150.298C427.731 150.291 427.742 150.287 427.754 150.287C427.766 150.287 427.778 150.291 427.787 150.298C427.797 150.304 427.805 150.313 427.809 150.324C427.993 150.803 428.096 151.308 428.114 151.819C428.21 152.364 428.351 152.902 428.536 153.426C428.874 154.493 429.49 155.459 430.323 156.232C432.169 157.839 434.611 158.401 436.966 158.913C437.053 158.913 437.024 159.046 436.966 159.053C435.579 159.134 434.188 158.95 432.874 158.513C431.701 158.19 430.613 157.627 429.684 156.864C428.798 156.076 428.184 155.045 427.925 153.91C427.793 153.319 427.715 152.718 427.692 152.113C427.692 151.826 427.692 151.531 427.692 151.243C427.627 150.94 427.63 150.627 427.7 150.324Z" fill="#37474F"/>
<path d="M416.369 107.556C404.312 116.194 384.688 116.973 382.501 115.976C377.871 113.92 371.141 94.6166 369.513 87.5786C369.048 85.5437 384.303 86.0489 385.829 87.719C387.225 89.2417 390.583 102.581 391.985 102.777C398.999 102.991 406.02 102.804 413.011 102.216C423.128 101.206 419.938 105.002 416.369 107.556Z" fill="#D3766A"/>
<path d="M401.499 101.781L403.309 115.415C403.309 115.415 414.043 111.359 418.717 107.198C423.39 103.037 420.723 101.507 416.057 101.276C411.391 101.044 401.499 101.781 401.499 101.781Z" fill="#EBEBEB"/>
<path d="M403.817 102.209C403.817 102.118 403.868 102.083 403.883 102.174C404.635 105.952 405.145 109.772 405.409 113.611C405.409 113.611 405.365 113.611 405.358 113.611C404.864 111.773 403.977 103.191 403.817 102.209Z" fill="#263238"/>
<path d="M444.554 154.057C444.452 154.169 401.746 155.046 401.354 154.632C400.794 154.043 407.684 112.692 414.436 103.668C416.122 101.416 422.183 99.8652 424.705 102.146C432.031 108.749 433.572 114.32 435.491 118.86C437.355 123.771 438.92 128.782 440.179 133.869C442.766 143.581 444.896 153.664 444.554 154.057Z" fill="#EBEBEB"/>
<path d="M425.483 102.244C425.483 102.244 419.196 116.095 418.164 119.632C416.747 124.474 414.676 156.387 414.676 156.387L445.201 154.661C445.201 154.661 439.386 122.755 432.736 111.429C427.518 102.518 425.483 102.244 425.483 102.244Z" fill="#CC0909"/>
<path d="M415.548 102.911C415.548 102.911 412.001 115.541 411.303 117.45C410.606 119.358 404.406 156.408 404.406 156.408L400.641 155.054C400.641 155.054 404.879 129.4 408.636 116.334C412.393 103.269 415.548 102.911 415.548 102.911Z" fill="#CC0909"/>
<path d="M415.541 143.903L442.882 143.847C442.65 142.858 442.41 141.819 442.155 140.746L415.795 140.795C415.693 141.848 415.62 142.886 415.541 143.903Z" fill="#EBEBEB"/>
<path d="M402.618 143.924H406.528C406.695 142.914 406.877 141.876 407.059 140.823H403.2C402.996 141.904 402.8 142.928 402.618 143.924Z" fill="#EBEBEB"/>
<path d="M415.133 149.349L444.088 149.292C443.885 148.352 443.66 147.314 443.413 146.198L415.366 146.254C415.308 147.349 415.206 148.387 415.133 149.349Z" fill="#EBEBEB"/>
<path d="M401.63 149.377H405.605C405.765 148.401 405.94 147.363 406.121 146.275H402.182C401.986 147.391 401.797 148.429 401.63 149.377Z" fill="#EBEBEB"/>
<path d="M430.163 111.219C431.791 122.783 429.502 138.872 426.777 140.746C419 146.086 405.62 148.928 399.929 149.566C396.615 149.938 395.241 134.129 398.17 133.645C402.793 132.901 413.854 130.634 415.424 129.954C416.994 129.273 420.032 118.727 422.895 111.071C426.006 102.756 429.378 105.619 430.163 111.219Z" fill="#D3766A"/>
<path d="M401.833 134.185C399.299 132.538 397.027 130.543 395.089 128.263C392.909 125.456 389.936 121.077 388.33 122.165C385.045 124.404 392.407 135.357 392.407 135.357C392.407 135.357 396.455 139.686 399.922 137.743C400.549 137.377 401.059 136.851 401.396 136.223C401.733 135.596 401.884 134.89 401.833 134.185Z" fill="#D3766A"/>
<path d="M379.085 134.578C378.939 135.059 378.95 135.572 379.115 136.047C379.28 136.523 379.591 136.938 380.008 137.237C379.328 137.782 378.868 138.539 378.707 139.378C378.489 140.865 380.815 141.841 380.815 141.841C380.23 142.545 379.88 143.403 379.812 144.303C379.754 145.749 381.948 147.054 381.948 147.054C381.785 147.99 381.976 148.952 382.486 149.763C383.94 151.868 387.937 151.77 390.481 151.734C393.025 151.699 400.213 149.286 401.63 148.928L401.499 133.175C401.499 133.175 390.03 130.213 387.043 130.67C384.543 131.056 379.695 132.782 379.085 134.578Z" fill="#D3766A"/>
<path d="M380.117 136.992C382.69 135.96 385.437 135.729 388.17 135.336C388.228 135.336 388.243 135.42 388.17 135.427C385.452 135.785 382.835 136.655 380.175 137.118C380.159 137.122 380.141 137.12 380.126 137.113C380.11 137.106 380.098 137.094 380.091 137.079C380.084 137.063 380.083 137.046 380.088 137.031C380.093 137.015 380.103 137.001 380.117 136.992Z" fill="#263238"/>
<path d="M380.865 141.63C381.472 141.455 382.1 141.356 382.733 141.335C383.409 141.272 384.078 141.216 384.747 141.181C386.091 141.097 387.443 141.041 388.787 141.027C388.846 141.027 388.86 141.118 388.787 141.118C387.443 141.202 386.106 141.307 384.768 141.448C384.107 141.518 383.438 141.588 382.77 141.672C382.144 141.782 381.508 141.829 380.873 141.813C380.854 141.806 380.837 141.794 380.825 141.778C380.813 141.762 380.806 141.743 380.805 141.724C380.804 141.704 380.81 141.685 380.82 141.668C380.831 141.651 380.847 141.638 380.865 141.63Z" fill="#263238"/>
<path d="M382.007 147.054C382.558 146.899 383.134 146.837 383.707 146.872L385.546 146.781C386.774 146.717 388.003 146.654 389.224 146.549C389.282 146.549 389.296 146.64 389.224 146.64C387.981 146.752 386.738 146.886 385.495 146.984L383.664 147.124C383.111 147.219 382.545 147.219 381.992 147.124C381.992 147.124 381.985 147.061 382.007 147.054Z" fill="#263238"/>
<path d="M418.389 122.13L432.198 125.639C432.198 125.639 432.322 114.51 430.076 108.798C427.83 103.086 425.367 104.875 423.397 108.966C421.427 113.057 418.389 122.13 418.389 122.13Z" fill="#EBEBEB"/>
<path d="M419.669 120.221C419.574 120.221 419.56 120.137 419.669 120.151C423.579 120.895 427.438 121.869 431.225 123.07C431.225 123.07 431.225 123.126 431.225 123.119C429.24 122.874 420.664 120.453 419.669 120.221Z" fill="#263238"/>
<path d="M446.4 80.3231C449.489 80.4282 452.487 81.3641 455.055 83.0254C457.623 84.6866 459.66 87.0073 460.936 89.7258L447.345 89.2767L444.438 96.3288L446.8 103.556L460.398 104.026C458.986 106.538 456.905 108.64 454.369 110.115C451.834 111.589 448.936 112.383 445.976 112.415C443.017 112.446 440.102 111.713 437.534 110.292C434.966 108.871 432.837 106.813 431.369 104.331C429.901 101.85 429.146 99.0349 429.182 96.1773C429.219 93.3197 430.045 90.5234 431.576 88.0776C433.108 85.6318 435.288 83.6253 437.891 82.2657C440.495 80.9061 443.427 80.2427 446.385 80.3442L446.4 80.3231Z" fill="#455A64"/>
<path d="M349.795 109.078C346.706 108.973 343.708 108.037 341.14 106.376C338.572 104.715 336.536 102.394 335.26 99.6757L348.851 100.146L351.758 93.1289L349.396 85.8944L335.798 85.4243C337.21 82.9124 339.291 80.8103 341.827 79.3356C344.363 77.8609 347.261 77.0671 350.221 77.0363C353.181 77.0056 356.096 77.7389 358.664 79.1606C361.232 80.5823 363.36 82.6406 364.828 85.1226C366.296 87.6046 367.05 90.4202 367.013 93.278C366.976 96.1359 366.148 98.9322 364.616 101.378C363.084 103.823 360.903 105.829 358.299 107.188C355.694 108.547 352.761 109.209 349.803 109.106L349.795 109.078Z" fill="#455A64"/>
<path d="M359.855 86.2223L359.326 100.5L440.071 103.29L440.6 89.0127L359.855 86.2223Z" fill="#455A64"/>
<path d="M383.512 91.2568L383.293 97.1403L416.544 98.295L416.763 92.4116L383.512 91.2568Z" fill="#37474F"/>
<path d="M417.139 107.872C418.905 108.208 423.106 105.521 424.967 103.016C425.09 102.847 425.047 100.869 425.105 98.4689C425.148 97.0164 425.228 95.3954 425.417 93.9219L415.562 95.0376C415.872 96.945 415.943 98.8817 415.773 100.805C415.742 101.008 415.693 101.207 415.628 101.402C415.628 101.402 415.628 101.465 415.628 101.5C415.264 102.609 414.37 107.352 417.139 107.872Z" fill="#D3766A"/>
<path d="M415.628 101.402C415.633 101.435 415.633 101.468 415.628 101.5C415.95 101.582 416.278 101.638 416.609 101.669C422.169 102.202 424.386 95.7745 424.887 93.9922L415.584 95.0377C415.898 96.9448 415.972 98.8816 415.802 100.806C415.758 101.008 415.7 101.207 415.628 101.402Z" fill="#263238"/>
<path d="M427.169 81.4529C428.208 84.7579 426.399 94.2869 423.964 96.413C420.439 99.4934 414.668 99.7882 411.957 95.7113C409.327 91.7397 411.914 79.3548 414.632 77.4252C418.637 74.5412 425.628 76.5761 427.169 81.4529Z" fill="#D3766A"/>
<path d="M418.942 87.3258C418.942 87.3258 418.986 87.3679 418.942 87.389C418.768 88.0205 418.688 88.7923 419.24 89.1151C419.24 89.1151 419.24 89.1572 419.24 89.1151C418.55 88.8976 418.666 87.8731 418.942 87.3258Z" fill="#263238"/>
<path d="M419.669 86.7856C420.744 86.94 420.352 89.01 419.356 88.8907C418.361 88.7714 418.768 86.6593 419.669 86.7856Z" fill="#263238"/>
<path d="M414.777 86.5402C414.777 86.5402 414.719 86.5402 414.719 86.5823C414.618 87.2278 414.385 87.9856 413.745 88.0628C414.501 88.126 414.792 87.1717 414.777 86.5402Z" fill="#263238"/>
<path d="M414.312 85.7681C413.258 85.5014 412.779 87.5574 413.76 87.803C414.741 88.0486 415.199 85.9856 414.312 85.7681Z" fill="#263238"/>
<path d="M420.701 85.9857C420.434 85.8568 420.174 85.7139 419.923 85.5577C419.625 85.3893 419.371 85.284 419.196 84.9753C419.161 84.8824 419.159 84.7807 419.191 84.6866C419.222 84.5924 419.286 84.5112 419.371 84.456C419.554 84.3709 419.758 84.3345 419.961 84.3505C420.164 84.3665 420.359 84.4344 420.526 84.5472C420.9 84.7248 421.193 85.0298 421.348 85.4033C421.374 85.4883 421.375 85.5787 421.35 85.6643C421.326 85.7498 421.278 85.8272 421.211 85.8877C421.144 85.9482 421.06 85.9894 420.97 86.0067C420.88 86.024 420.787 86.0168 420.701 85.9857Z" fill="#263238"/>
<path d="M413.716 84.8208C414.015 84.8173 414.314 84.7962 414.61 84.7577C414.929 84.7782 415.245 84.6968 415.511 84.5261C415.584 84.4568 415.631 84.366 415.644 84.2681C415.657 84.1702 415.636 84.0708 415.584 83.9858C415.457 83.8318 415.29 83.7135 415.099 83.6432C414.909 83.5728 414.702 83.553 414.501 83.5859C414.083 83.5856 413.68 83.7386 413.375 84.0139C413.309 84.0805 413.264 84.1642 413.246 84.2548C413.228 84.3454 413.238 84.4391 413.274 84.5244C413.31 84.6098 413.371 84.6833 413.45 84.7359C413.528 84.7885 413.621 84.818 413.716 84.8208Z" fill="#263238"/>
<path d="M417.845 93.3746C417.675 93.537 417.451 93.6364 417.212 93.6553C416.966 93.6082 416.733 93.51 416.529 93.3676C416.529 93.3676 416.486 93.3676 416.529 93.3676C416.602 93.5104 416.714 93.6318 416.852 93.7193C416.99 93.8069 417.149 93.8574 417.314 93.8658C417.455 93.8536 417.589 93.802 417.7 93.7172C417.811 93.6325 417.894 93.5183 417.939 93.3886C417.925 93.3816 417.874 93.3605 417.845 93.3746Z" fill="#263238"/>
<path d="M417.488 91.3326C417.271 91.5557 417.009 91.7333 416.717 91.854C416.426 91.9747 416.112 92.0361 415.795 92.0343C415.517 92.0372 415.241 92.0018 414.974 91.929L414.821 91.8869L414.676 91.8378C414.643 91.8234 414.615 91.7994 414.597 91.7692C414.579 91.7391 414.571 91.7042 414.574 91.6694C414.57 91.6485 414.57 91.6272 414.574 91.6062V91.5501C414.654 91.0589 414.85 90.3151 414.85 90.3151C414.639 90.3712 413.607 90.6168 413.673 90.3572C414.155 88.1384 414.871 85.973 415.809 83.8946C415.818 83.8843 415.83 83.8768 415.843 83.8733C415.856 83.8698 415.87 83.8705 415.883 83.8751C415.896 83.8798 415.907 83.8882 415.915 83.8993C415.922 83.9104 415.926 83.9234 415.926 83.9367C415.49 85.9857 414.69 87.9504 414.218 90.0064C414.585 89.9146 414.965 89.8744 415.344 89.8871C415.417 89.8871 414.952 91.2905 414.93 91.5431C415.342 91.658 415.774 91.6918 416.199 91.6423C416.625 91.5929 417.036 91.4613 417.408 91.2554C417.488 91.2343 417.561 91.2834 417.488 91.3326Z" fill="#263238"/>
<path d="M415.344 91.7325C415.558 92.1359 415.876 92.4791 416.267 92.7289C416.485 92.8571 416.74 92.916 416.994 92.8974C417.546 92.8974 417.655 92.3921 417.634 91.9711C417.617 91.7477 417.575 91.5266 417.51 91.3115C416.852 91.6695 416.094 91.8169 415.344 91.7325Z" fill="#263238"/>
<path d="M416.267 92.7289C416.485 92.857 416.74 92.9159 416.994 92.8973C417.546 92.8973 417.656 92.3921 417.634 91.9711C417.351 91.9307 417.062 91.9836 416.814 92.1211C416.566 92.2586 416.374 92.4727 416.267 92.7289Z" fill="#FF9BBC"/>
<path d="M412.99 79.8318C413.135 79.5582 413.535 78.8916 413.92 78.9126C414.305 78.9337 414.647 79.7476 415.555 80.0634C416.805 80.5265 419.189 79.3617 420.919 79.9792C422.648 80.5967 423.55 82.3228 423.608 85.3963C423.666 88.4697 425.919 91.1431 426.813 89.2065C426.813 89.1363 426.893 89.01 426.98 88.8275C427.518 85.9366 427.663 83.0035 427.169 81.4527C425.628 76.576 418.629 74.5621 414.632 77.411C413.889 78.0768 413.325 78.9078 412.99 79.8318Z" fill="#263238"/>
<path d="M425.054 89.2205C425.054 89.2205 427.351 86.1821 428.782 86.9821C430.214 87.782 428.441 92.2167 426.726 92.7921C426.512 92.8816 426.281 92.9282 426.048 92.9291C425.814 92.9299 425.583 92.885 425.369 92.7971C425.154 92.7092 424.96 92.5801 424.798 92.4176C424.637 92.2551 424.511 92.0626 424.429 91.8518L425.054 89.2205Z" fill="#D3766A"/>
<path d="M428.245 88.2451C428.245 88.2451 428.245 88.2802 428.245 88.2872C427.692 88.5388 427.199 88.8999 426.8 89.3472C426.4 89.7945 426.103 90.3179 425.927 90.8835C425.998 90.7661 426.095 90.6654 426.211 90.5886C426.327 90.5118 426.459 90.4608 426.598 90.4393C426.737 90.4178 426.88 90.4264 427.015 90.4644C427.15 90.5023 427.275 90.5688 427.38 90.6589C427.38 90.6589 427.38 90.7291 427.38 90.7221C427.173 90.6537 426.948 90.6487 426.738 90.7077C426.527 90.7667 426.34 90.8869 426.203 91.0519C425.978 91.3338 425.783 91.6371 425.621 91.9571C425.563 92.0623 425.367 91.9992 425.411 91.8869C425.381 90.3853 426.61 88.3574 428.245 88.2451Z" fill="#263238"/>
<path d="M411.558 81.116C411.558 81.116 414.465 71.9448 422.975 74.4078C431.486 76.8707 428.688 86.0769 428.688 86.0769L411.558 81.116Z" fill="#CC0909"/>
<path d="M429.511 85.6289L411.105 80.2976L410.7 81.6015L429.106 86.9328L429.511 85.6289Z" fill="#CC0909"/>
<path d="M420.185 82.9052L416.355 81.7965L420.054 73.0464L423.884 74.1551L420.185 82.9052Z" fill="#CC0909"/>
<path opacity="0.1" d="M420.185 82.9052L416.355 81.7965L420.054 73.0464L423.884 74.1551L420.185 82.9052Z" fill="black"/>
<path d="M368.852 96.3567C370.705 97.5636 371.119 94.7569 371.119 94.7569C371.119 94.7569 371.534 98.967 373.954 99.4652C376.374 99.9634 376.657 96.5602 376.687 96.3216C376.687 96.5392 377.195 100.37 379.681 100.665C382.166 100.96 382.028 97.4794 382.014 97.2549C382.108 97.4584 383.351 100.104 385.292 99.9143C388.62 99.5775 385.728 91.7255 386.862 89.3468L391.789 88.2592C390.527 87.9546 389.384 87.3039 388.497 86.3856C387.174 85.0945 386.316 84.2314 385.19 83.8736C384.694 83.698 384.152 83.6817 383.645 83.8271C383.138 83.9724 382.694 84.2718 382.377 84.6805C382.377 84.6805 381.745 82.4632 379.797 82.1755C378.794 82.0281 377.66 83.4455 377.66 83.4455C377.491 82.9544 377.184 82.5182 376.773 82.1851C376.363 81.852 375.865 81.6349 375.335 81.558C373.939 81.4317 373.016 82.8772 373.016 82.8772C373.016 82.8772 371.65 81.4738 370.182 81.7615C367.216 82.372 364.869 93.7604 368.852 96.3567Z" fill="#D3766A"/>
<path d="M387.952 88.9258L391.687 88.2662L392.08 88.0978C396.441 86.0488 397.836 80.1967 394.398 80.73C391.782 81.137 389.979 85.1156 387.24 85.1577L387.952 88.9258Z" fill="#D3766A"/>
<path d="M372.835 83.0596H372.776C370.987 86.7474 370.397 90.872 371.083 94.8901C371.083 95.0164 371.33 95.0375 371.33 94.8901C371.238 90.8972 371.745 86.9124 372.835 83.0596Z" fill="#263238"/>
<path d="M377.653 83.3824C377.653 83.3403 377.588 83.3192 377.566 83.3824C375.63 87.4801 375.269 92.1097 376.548 96.4409C376.599 96.5953 376.803 96.6795 376.759 96.5041C376.061 93.4868 376.57 86.9891 377.653 83.3824Z" fill="#263238"/>
<path d="M382.225 97.5286C381.011 93.3184 381.324 89.1082 382.29 84.8279C382.29 84.7718 382.225 84.7577 382.196 84.8279C381.135 86.7926 380.815 89.5714 380.742 91.7536C380.645 93.7794 381.099 95.7945 382.058 97.5987C382.108 97.6408 382.254 97.6198 382.225 97.5286Z" fill="#263238"/>
</svg>
